<svg width="18" height="20" fill="none" xmlns="http://www.w3.org/2000/svg"><path d="M9.208 4.154c.776 0 1.75-.55 2.33-1.282.524-.663.907-1.59.907-2.517 0-.126-.01-.252-.032-.355-.865.034-1.904.606-2.527 1.373-.492.584-.94 1.5-.94 2.438 0 .137.021.274.032.32.055.011.142.023.23.023ZM6.473 18c1.061 0 1.532-.744 2.855-.744 1.346 0 1.64.721 2.822.721 1.16 0 1.936-1.121 2.669-2.22.82-1.259 1.16-2.495 1.181-2.552-.076-.023-2.297-.972-2.297-3.639 0-2.311 1.75-3.352 1.849-3.433-1.16-1.739-2.92-1.785-3.402-1.785-1.302 0-2.362.824-3.03.824-.722 0-1.673-.778-2.8-.778C4.177 4.394 2 6.248 2 9.75c0 2.174.81 4.474 1.805 5.961C4.658 16.971 5.402 18 6.473 18Z" fill="#000"/></svg>