<?xml version="1.0" encoding="UTF-8"?>
<svg version="1.1" xmlns="http://www.w3.org/2000/svg" width="500" height="500">
<path d="M0 0 C4.65279527 0 7.30795162 2.63184715 10.64453125 5.52734375 C12 7 12 7 12 9 C12.66 9 13.32 9 14 9 C15.41015625 10.36328125 15.41015625 10.36328125 17.0625 12.3125 C17.68898438 13.05113281 18.31546875 13.78976563 18.9609375 14.55078125 C19.63382812 15.35902344 20.30671875 16.16726562 21 17 C21.67289062 17.79792969 22.34578125 18.59585938 23.0390625 19.41796875 C25.39578451 22.25032011 27.70864068 25.11477722 30 28 C30.46067871 28.5775 30.92135742 29.155 31.39599609 29.75 C67.46203307 75.31217986 80.16780209 131.46680306 73.8125 188.75 C69.41920905 223.71316318 55.40337926 258.69505789 32.7578125 285.87890625 C31.10803256 287.86964071 29.57928896 289.90716277 28.0625 292 C24.35924107 296.96078269 20.23086606 301.48665772 16 306 C15.47889648 306.5657373 14.95779297 307.13147461 14.42089844 307.71435547 C12.73520599 309.5348837 11.02706128 311.33167018 9.3125 313.125 C8.77810303 313.70596436 8.24370605 314.28692871 7.69311523 314.88549805 C5.26091108 317.38310222 3.63778141 318.89907108 0.14282227 319.45214844 C-4.04803639 318.84922214 -5.45528384 317.26275907 -8.3984375 314.2578125 C-8.8782608 313.77424286 -9.35808411 313.29067322 -9.85244751 312.79244995 C-10.85941893 311.77207827 -11.85919107 310.74455724 -12.85205078 309.71044922 C-14.37683268 308.12309211 -15.9221924 306.558337 -17.47265625 304.99609375 C-25 297.32744937 -25 297.32744937 -25 295 C-25.66 295 -26.32 295 -27 295 C-29.41330348 293.08355312 -30.80151511 291.80238573 -31.55078125 288.7734375 C-30.66291801 284.30263678 -27.41595644 282.20664416 -24.0625 279.3125 C-22.675601 278.0668954 -21.29148025 276.81819044 -19.91015625 275.56640625 C-19.2361377 274.95812988 -18.56211914 274.34985352 -17.86767578 273.72314453 C-10.87032691 267.26728985 -5.21862652 259.92333403 0 252 C1.10021484 250.35644531 1.10021484 250.35644531 2.22265625 248.6796875 C19.69703749 222.30146622 29.49550802 191.26478091 29.25 159.5625 C29.24323242 158.29059814 29.23646484 157.01869629 29.22949219 155.70825195 C28.97966541 133.04228142 23.87896824 111.44397595 14 91 C13.4740625 89.88496094 12.948125 88.76992187 12.40625 87.62109375 C4.80946983 71.89230572 -5.34317038 57.64259949 -17.34765625 44.9609375 C-19 43 -19 43 -19 41 C-19.53625 40.773125 -20.0725 40.54625 -20.625 40.3125 C-23.84159531 38.53490786 -26.37001807 36.57020962 -29 34 C-29.46166992 31.65234375 -29.46166992 31.65234375 -29 29 C-27.05981445 26.4921875 -27.05981445 26.4921875 -24.36328125 23.875 C-23.88682663 23.40562012 -23.41037201 22.93624023 -22.91947937 22.45263672 C-21.39517952 20.95625103 -19.8544782 19.47814064 -18.3125 18 C-17.29377905 17.00637868 -16.27618783 16.0115977 -15.25976562 15.015625 C-13.37570462 13.17227239 -11.48444775 11.33767701 -9.5871582 9.5078125 C-7.03161694 7.03064728 -4.51059994 4.52262517 -2 2 C-1.34 1.34 -0.68 0.68 0 0 Z " fill="#97BCE6" transform="translate(385,91)"/>
<path d="M0 0 C6.46623853 2.9001402 11.12259158 8.77470917 15.6328125 14.07421875 C19.33286486 18.33768817 23.28123686 22.26231445 27.7265625 25.7421875 C30.3515625 28.0546875 30.3515625 28.0546875 31.4765625 30.0546875 C31.27022364 33.35610919 29.61452236 34.68133936 27.3515625 37.0546875 C26.13087236 38.12691533 24.90078896 39.18849656 23.6640625 40.2421875 C-4.27381174 64.29980143 -22.42207498 104.55069029 -26.40625 140.85546875 C-28.76621966 174.93722036 -23.48800607 213.23810969 -3.21875 241.80859375 C-1.6484375 244.0546875 -1.6484375 244.0546875 0.25390625 247.4375 C7.87852839 260.96920927 19.62097299 273.26860216 31.08203125 283.6171875 C32.3515625 285.0546875 32.3515625 285.0546875 32.2890625 287.6171875 C31.12488046 290.6440608 30.2066548 290.75691827 27.3515625 292.0546875 C27.07868408 292.62598389 26.80580566 293.19728027 26.5246582 293.78588867 C24.0895317 298.49548922 19.78924306 302.0689163 16.07592773 305.81079102 C14.5403077 307.36592647 13.02730397 308.94107246 11.51367188 310.51757812 C10.53778387 311.50651814 9.56061246 312.49419366 8.58203125 313.48046875 C7.69926514 314.38192627 6.81649902 315.28338379 5.90698242 316.2121582 C3.3515625 318.0546875 3.3515625 318.0546875 0.79956055 318.08666992 C-2.13852905 316.84808363 -3.80498958 315.38447531 -6.046875 313.1171875 C-6.85640625 312.30378906 -7.6659375 311.49039062 -8.5 310.65234375 C-9.33273438 309.79511719 -10.16546875 308.93789063 -11.0234375 308.0546875 C-11.8484375 307.22839844 -12.6734375 306.40210938 -13.5234375 305.55078125 C-18.66176328 300.33905081 -23.30124208 294.93923547 -27.6484375 289.0546875 C-28.74865234 287.58515625 -28.74865234 287.58515625 -29.87109375 286.0859375 C-33.93563416 280.49395833 -37.90517867 274.86708438 -41.6484375 269.0546875 C-42.26460937 268.11367188 -42.88078125 267.17265625 -43.515625 266.203125 C-72.56598412 220.64944903 -79.46557079 163.34065983 -68.6171875 110.95703125 C-62.68101613 84.22487771 -50.92175407 58.76661837 -34.6796875 36.80859375 C-33.32781671 34.97576892 -31.99428614 33.12927099 -30.6796875 31.26953125 C-26.07237747 24.76993318 -21.1280227 18.83452394 -15.6484375 13.0546875 C-15.12491699 12.4879834 -14.60139648 11.9212793 -14.06201172 11.33740234 C-12.35740893 9.49756806 -10.63098372 7.6806984 -8.8984375 5.8671875 C-8.08403198 4.98281006 -8.08403198 4.98281006 -7.25317383 4.08056641 C-3.34554869 0.06908213 -3.34554869 0.06908213 0 0 Z " fill="#97BCE6" transform="translate(112.6484375,91.9453125)"/>
<path d="M0 0 C3.42076415 1.31611489 6.23726671 2.54423708 9 5 C9 5.66 9 6.32 9 7 C9.59683594 7.27328125 10.19367188 7.5465625 10.80859375 7.828125 C21.81248733 13.71256007 31.3551229 29.25813094 37 40 C37.50015625 40.94746094 38.0003125 41.89492187 38.515625 42.87109375 C41.597604 49.10509672 43.87591794 55.38472019 45.75 62.0625 C45.94859619 62.76955078 46.14719238 63.47660156 46.35180664 64.20507812 C49.46597741 75.90955893 50.40811396 87.37766232 50.375 99.4375 C50.37445618 100.18400818 50.37391235 100.93051636 50.37335205 101.699646 C50.25733677 136.43462153 38.28210361 165.03558935 14 190 C2.92458226 200.96848267 2.92458226 200.96848267 -2 201 C-4.23828125 199.63671875 -4.23828125 199.63671875 -6.3125 197.6875 C-7.00988281 197.05199219 -7.70726562 196.41648437 -8.42578125 195.76171875 C-10 194 -10 194 -10 192 C-10.58007812 191.74605469 -11.16015625 191.49210938 -11.7578125 191.23046875 C-17.75752687 187.93794257 -22.35592723 181.74667423 -26.67578125 176.52734375 C-28.10683515 174.8125977 -28.10683515 174.8125977 -30.4375 172.8125 C-32 171 -32 171 -31.90625 169.140625 C-30.62284098 166.10912438 -28.68454475 164.90495293 -26.0625 162.9375 C-10.29492092 150.44630099 1.01193595 133.14803346 4 113 C5.84170015 88.50497688 1.65342236 67.10247089 -14.4375 48 C-18.63258858 43.15316781 -23.2496377 38.96347469 -28.296875 35 C-30 33 -30 33 -30.0078125 30.4765625 C-28.80268721 27.5151306 -27.60271564 26.38975147 -25.125 24.375 C-19.42688351 19.5016109 -14.15905427 14.25492932 -8.875 8.9375 C-8.00891113 8.06722168 -7.14282227 7.19694336 -6.25048828 6.30029297 C-4.16492074 4.20223451 -2.08137925 2.10221228 0 0 Z " fill="#2874BE" transform="translate(326,150)"/>
<path d="M0 0 C3.25084179 1.44437154 5.44778058 3.87542136 7.88867188 6.38989258 C8.42842651 6.93389206 8.96818115 7.47789154 9.52429199 8.03837585 C11.24668221 9.77752865 12.95836592 11.52680159 14.66992188 13.27661133 C15.82156964 14.44331437 16.97390623 15.60933789 18.12695312 16.7746582 C20.25040165 18.92257175 22.36977196 21.0743355 24.484375 23.23095703 C26.13858719 24.91449389 27.81414544 26.57772442 29.52319336 28.20556641 C31.16992188 29.96411133 31.16992188 29.96411133 31.23632812 31.92504883 C29.71412317 34.83563853 27.61173851 36.47404886 25.10742188 38.58911133 C14.79956021 47.65628918 8.80810179 57.64198585 3.16992188 69.96411133 C2.64011719 71.09461914 2.1103125 72.22512695 1.56445312 73.38989258 C-5.45235946 91.37416014 -3.49949197 113.43164871 3.79492188 130.92895508 C10.31648232 145.63185434 21.07841819 156.63396842 33.16992188 166.96411133 C32.61487942 170.61153319 31.39610915 171.94637164 28.54492188 174.21411133 C25.77481488 176.52986215 23.30724139 178.82729567 20.98242188 181.58911133 C17.62984202 185.50690672 14.12971418 189.25944141 10.54492188 192.96411133 C9.71891479 193.84703857 9.71891479 193.84703857 8.8762207 194.74780273 C4.89461063 198.81160063 4.89461063 198.81160063 1.47851562 199.53051758 C-1.29433406 198.85020759 -2.26056544 198.02646436 -4.14257812 195.90161133 C-6.51025885 193.34044271 -8.87813355 191.04376549 -11.58007812 188.83911133 C-24.73550583 177.38854562 -34.43114673 162.09227298 -40.83007812 145.96411133 C-41.18714844 145.06950195 -41.54421875 144.17489258 -41.91210938 143.25317383 C-53.00082624 112.93570825 -51.01111356 74.35937721 -37.96728516 45.02368164 C-32.74036331 33.80703675 -13.96081333 -0.27377796 0 0 Z " fill="#2974BF" transform="translate(171.830078125,151.035888671875)"/>
<path d="M0 0 C6.6 0 13.2 0 20 0 C20 9.24 20 18.48 20 28 C29.24 28 38.48 28 48 28 C48 34.6 48 41.2 48 48 C38.76 48 29.52 48 20 48 C20 57.24 20 66.48 20 76 C13.4 76 6.8 76 0 76 C0 66.76 0 57.52 0 48 C-9.24 48 -18.48 48 -28 48 C-28 41.4 -28 34.8 -28 28 C-18.76 28 -9.52 28 0 28 C0 18.76 0 9.52 0 0 Z " fill="#F3F3F3" transform="translate(240,215)"/>
<path d="M0 0 C0.99 0.33 1.98 0.66 3 1 C2.38876602 4.56553155 1.40218232 7.66981698 0 11 C-1.1274414 14.3823242 -1.39857927 17.50574984 -1.71875 21.0390625 C-2 23 -2 23 -3 24 C-3.12375 25.010625 -3.2475 26.02125 -3.375 27.0625 C-4.25801271 32.6254801 -5.87324203 37.30986304 -9 42 C-9.29796612 44.80372111 -9.29796612 44.80372111 -9.24291992 48.01611328 C-9.24599655 49.25394562 -9.24907318 50.49177795 -9.25224304 51.76712036 C-9.24534637 53.1181863 -9.23807948 54.46925039 -9.23046875 55.8203125 C-9.22927665 57.20368405 -9.22882385 58.58705642 -9.2290802 59.97042847 C-9.22751676 62.86721881 -9.21923622 65.76388533 -9.20581055 68.66064453 C-9.18878911 72.38110231 -9.18499718 76.10142442 -9.18575573 79.82191658 C-9.18548441 82.67684229 -9.18000981 85.53173811 -9.17275429 88.3866539 C-9.16956405 89.7590398 -9.16759939 91.1314291 -9.16686058 92.50381851 C-9.16470259 94.41678326 -9.15517354 96.32973548 -9.14526367 98.24267578 C-9.14145187 99.3328299 -9.13764008 100.42298401 -9.13371277 101.5461731 C-9.27679055 103.9457378 -9.27679055 103.9457378 -8 105 C-7.67648699 107.83972535 -7.4869571 110.68073737 -7.28125 113.53125 C-7.26614735 115.9413605 -7.26614735 115.9413605 -6 117 C-5.66666667 119.33333333 -5.33333333 121.66666667 -5 124 C-4.67 124.33 -4.34 124.66 -4 125 C-1.60257082 134.42988812 0.20714218 144.24952182 0 154 C-20.0597568 123.9103648 -17.76193775 69.99279729 -11 36 C-8.4653617 23.55764985 -4.77774392 11.75554861 0 0 Z " fill="#7E9BBD" transform="translate(54,172)"/>
<path d="M0 0 C18.62148998 32.78068743 12.46879415 88.98398983 2.98828125 123.5390625 C2.66214844 124.68117188 2.33601563 125.82328125 2 127 C0.48828125 125.64453125 0.48828125 125.64453125 -1 124 C-0.68924106 120.16730635 0.765605 116.62603531 2 113 C3.05692889 109.61782754 3.08038348 106.53687306 3 103 C3.66 103 4.32 103 5 103 C5.04667197 95.14074689 5.0820441 87.28152723 5.10362434 79.42216969 C5.11399018 75.77138632 5.12801487 72.12069888 5.15087891 68.4699707 C5.17286787 64.93620063 5.1846225 61.40252188 5.18975449 57.86868858 C5.19516065 55.88767353 5.21073006 53.90669439 5.22659302 51.92573547 C5.22758758 43.75977901 4.44402019 36.03168734 3 28 C2.50729336 24.60579871 2.02887837 21.21039955 1.5625 17.8125 C1.22483554 15.52388532 0.86390622 13.23826646 0.45703125 10.9609375 C0.26496094 9.88070312 0.07289063 8.80046875 -0.125 7.6875 C-0.31320312 6.66011719 -0.50140625 5.63273438 -0.6953125 4.57421875 C-1 2 -1 2 0 0 Z " fill="#7492B6" transform="translate(450,185)"/>
<path d="M0 0 C0.99 0.33 1.98 0.66 3 1 C3 1.66 3 2.32 3 3 C3.66 3 4.32 3 5 3 C7 6 7 6 7 10 C7.66 10 8.32 10 9 10 C9 11.98 9 13.96 9 16 C9.66 16 10.32 16 11 16 C12.36139784 21.32663428 13.69332726 26.65968533 15 32 C15.22300781 32.89976562 15.44601562 33.79953125 15.67578125 34.7265625 C19.50208767 51.72587803 18.41092291 70.33387896 17.5625 87.625 C17.52334473 88.44911377 17.48418945 89.27322754 17.44384766 90.12231445 C17.12388563 95.87611437 17.12388563 95.87611437 16 97 C15.67647018 98.53529607 15.39127349 100.07874517 15.125 101.625 C14.12072978 106.89553094 12.39628429 111.20743142 10 116 C9.34 116 8.68 116 8 116 C8 118.64 8 121.28 8 124 C6.515 124.495 6.515 124.495 5 125 C5.62070403 120.7318599 6.61050115 116.78867757 7.9375 112.6875 C12.46768379 98.19745366 14.36765415 83.75509902 14.25 68.5625 C14.24323242 67.29059814 14.23646484 66.01869629 14.22949219 64.70825195 C13.99033682 43.01046387 9.03697453 22.88531934 0.734375 2.86328125 C0 1 0 1 0 0 Z " fill="#84A5C2" transform="translate(400,182)"/>
<path d="M0 0 C1.32 0.33 2.64 0.66 4 1 C3.52393017 4.72921369 2.94330356 8.345012 2.0625 12 C-4.93441231 43.61762628 -0.51412858 74.76310687 10 105 C8.68 104.67 7.36 104.34 6 104 C6 103.34 6 102.68 6 102 C5.34 102 4.68 102 4 102 C3.01 98.37 2.02 94.74 1 91 C0.67 91 0.34 91 0 91 C0 88.36 0 85.72 0 83 C-0.66 83 -1.32 83 -2 83 C-2 79.37 -2 75.74 -2 72 C-2.66 72 -3.32 72 -4 72 C-4.13277344 70.75863281 -4.26554687 69.51726562 -4.40234375 68.23828125 C-4.58061151 66.59634139 -4.75900346 64.95441501 -4.9375 63.3125 C-5.02451172 62.49587891 -5.11152344 61.67925781 -5.20117188 60.83789062 C-5.55552679 57.59619933 -5.90917465 54.4258566 -6.58984375 51.234375 C-7.06108839 48.66721372 -6.92109824 46.52635894 -6.625 43.9375 C-6.53476563 43.10089844 -6.44453125 42.26429688 -6.3515625 41.40234375 C-6 39 -6 39 -5.49780273 37.10668945 C-4.9992191 34.99669525 -4.79827794 33.05324119 -4.68359375 30.890625 C-4.62075195 29.75947266 -4.62075195 29.75947266 -4.55664062 28.60546875 C-4.51732422 27.82816406 -4.47800781 27.05085938 -4.4375 26.25 C-4.39431641 25.45722656 -4.35113281 24.66445312 -4.30664062 23.84765625 C-4.20097009 21.89862185 -4.10002034 19.94933252 -4 18 C-3.34 18 -2.68 18 -2 18 C-2.01160156 17.28972656 -2.02320312 16.57945312 -2.03515625 15.84765625 C-2.04869141 14.46900391 -2.04869141 14.46900391 -2.0625 13.0625 C-2.07410156 12.14597656 -2.08570312 11.22945312 -2.09765625 10.28515625 C-2 8 -2 8 -1 7 C-0.63239269 4.67182036 -0.29758419 2.3381615 0 0 Z " fill="#84AACB" transform="translate(87,205)"/>
<path d="M0 0 C2.625 0.9375 2.625 0.9375 5 2 C4.7525 3.03125 4.505 4.0625 4.25 5.125 C3.94130879 9.90971371 5.1560906 11.2622905 8 15 C10.3258087 19.41903654 10.1658937 23.10613592 10 28 C10.99 28.33 11.98 28.66 13 29 C13.02886751 33.14581887 13.04675327 37.29161216 13.0625 41.4375 C13.07087891 42.62150391 13.07925781 43.80550781 13.08789062 45.02539062 C13.09272461 46.71245117 13.09272461 46.71245117 13.09765625 48.43359375 C13.10551147 49.99678345 13.10551147 49.99678345 13.11352539 51.59155273 C13 54 13 54 12 55 C11.60851239 56.51165654 11.26027543 58.03469632 10.9375 59.5625 C10.76089844 60.38878906 10.58429688 61.21507812 10.40234375 62.06640625 C10.26957031 62.70449219 10.13679688 63.34257812 10 64 C9.34 64 8.68 64 8 64 C8.05800781 65.01320313 8.11601562 66.02640625 8.17578125 67.0703125 C7.98370927 71.36418825 7.02083547 74.01205957 5.1875 77.875 C4.66542969 79.00679688 4.14335937 80.13859375 3.60546875 81.3046875 C2 84 2 84 -1 85 C-1.60061233 86.90178785 -1.60061233 86.90178785 -2 89 C-2.66 89.99 -3.32 90.98 -4 92 C-4.66 92 -5.32 92 -6 92 C-6.226875 92.7425 -6.45375 93.485 -6.6875 94.25 C-8.7062052 98.47966804 -11.59158687 100.37403861 -15.8125 102.25 C-16.534375 102.4975 -17.25625 102.745 -18 103 C-16.7315625 101.5459375 -16.7315625 101.5459375 -15.4375 100.0625 C3.08949119 78.30963269 9.81198781 57.38931899 8 29 C6.75986991 19.00940072 2.50061869 9.89622295 -2 1 C-1.34 0.67 -0.68 0.34 0 0 Z " fill="#236194" transform="translate(322,208)"/>
<path d="M0 0 C0.99 0.33 1.98 0.66 3 1 C2.45730469 2.07378906 1.91460937 3.14757812 1.35546875 4.25390625 C0.63270385 5.69004949 -0.08994628 7.1262505 -0.8125 8.5625 C-1.34713867 9.61920898 -1.34713867 9.61920898 -1.89257812 10.69726562 C-11.19080171 29.20840799 -13.72548066 50.56220597 -7.359375 70.65234375 C-5.31024488 75.69862109 -2.90965989 80.49474432 -0.29296875 85.26953125 C0.13371094 86.17058594 0.56039062 87.07164062 1 88 C0.505 88.99 0.505 88.99 0 90 C-1.485 90.495 -1.485 90.495 -3 91 C-3.268125 89.865625 -3.53625 88.73125 -3.8125 87.5625 C-4.204375 86.386875 -4.59625 85.21125 -5 84 C-5.99 83.67 -6.98 83.34 -8 83 C-9.1714755 79.16016365 -9.92286175 75.53032549 -10.5 71.5625 C-10.665 70.716875 -10.83 69.87125 -11 69 C-11.66 68.67 -12.32 68.34 -13 68 C-15.32904291 60.33822064 -15.28015791 52.30456663 -15.1875 44.375 C-15.18685547 43.28832031 -15.18621094 42.20164063 -15.18554688 41.08203125 C-15.14082166 33.14082166 -15.14082166 33.14082166 -14 32 C-13.76924918 30.65252916 -13.58846937 29.29622435 -13.4375 27.9375 C-13.293125 26.638125 -13.14875 25.33875 -13 24 C-12.34 24 -11.68 24 -11 24 C-11.103125 22.741875 -11.20625 21.48375 -11.3125 20.1875 C-11.3203125 17.94140625 -11.3203125 17.94140625 -11 16 C-10.236875 15.54625 -9.47375 15.0925 -8.6875 14.625 C-4.80068263 12.27483136 -4.58104403 9.33231923 -3.48046875 5.08203125 C-3.32191406 4.39496094 -3.16335937 3.70789063 -3 3 C-2.34 3 -1.68 3 -1 3 C-0.67 2.01 -0.34 1.02 0 0 Z " fill="#2667A0" transform="translate(180,204)"/>
<path d="M0 0 C2.38807841 4.77615683 -0.62912139 12.59066129 -1.9375 17.5625 C-3.00313997 20.00720346 -3.87186979 21.40390234 -6 23 C-6.66 23 -7.32 23 -8 23 C-8.66 27.62 -9.32 32.24 -10 37 C-10.66 37 -11.32 37 -12 37 C-12.0984341 51.15028001 -12.14836421 65.29444346 -11.625 79.4375 C-11.5787146 80.90799805 -11.5787146 80.90799805 -11.53149414 82.40820312 C-11.32508067 87.28659882 -10.88015425 91.42190082 -9 96 C-8.34 96 -7.68 96 -7 96 C-4.58613067 101.50362208 -3.39980945 104.96851254 -5 111 C-5.99 111.495 -5.99 111.495 -7 112 C-19.35147027 81.63393475 -19.1466008 43.28892984 -6.82470703 12.89941406 C-4.87875482 8.41761767 -2.53926898 4.16908347 0 0 Z " fill="#235B8B" transform="translate(139,187)"/>
<path d="M0 0 C4.65279527 0 7.30795162 2.63184715 10.64453125 5.52734375 C12 7 12 7 12 9 C12.66 9 13.32 9 14 9 C15.65625 10.609375 15.65625 10.609375 17.5 12.75 C18.1084375 13.44609375 18.716875 14.1421875 19.34375 14.859375 C20.87976963 16.84460792 21.9723966 18.71872045 23 21 C20.1875 20.875 20.1875 20.875 17 20 C15.96567096 18.01753602 14.96761608 16.01586684 14 14 C11.08333333 12.33333333 11.08333333 12.33333333 8 11 C5.625 8.9375 5.625 8.9375 4 7 C4 6.34 4 5.68 4 5 C1.50447516 5.78130071 1.50447516 5.78130071 -1 7 C-1.33 7.99 -1.66 8.98 -2 10 C-3.65532623 11.01866229 -5.32260138 12.01810813 -7 13 C-7.99 14.485 -7.99 14.485 -9 16 C-9.66 16 -10.32 16 -11 16 C-11 16.66 -11 17.32 -11 18 C-13.90548882 20.04169485 -15.40142046 21 -19 21 C-19.33 22.98 -19.66 24.96 -20 27 C-20.99 27.33 -21.98 27.66 -23 28 C-23.33 30.97 -23.66 33.94 -24 37 C-26.5 35.8125 -26.5 35.8125 -29 34 C-29.44604492 31.70703125 -29.44604492 31.70703125 -29 29 C-27.05981445 26.4921875 -27.05981445 26.4921875 -24.36328125 23.875 C-23.88682663 23.40562012 -23.41037201 22.93624023 -22.91947937 22.45263672 C-21.39517952 20.95625103 -19.8544782 19.47814064 -18.3125 18 C-17.29377905 17.00637868 -16.27618783 16.0115977 -15.25976562 15.015625 C-13.37570462 13.17227239 -11.48444775 11.33767701 -9.5871582 9.5078125 C-7.03161694 7.03064728 -4.51059994 4.52262517 -2 2 C-1.34 1.34 -0.68 0.68 0 0 Z " fill="#819EBD" transform="translate(385,91)"/>
<path d="M0 0 C2.29656078 4.09464325 2.07885058 6.37635465 1 11 C-0.06746255 13.84319409 -1.14348973 16.58358981 -3 19 C-4.32 19.33 -5.64 19.66 -7 20 C-7.33 22.97 -7.66 25.94 -8 29 C-8.66 29 -9.32 29 -10 29 C-10.103125 29.53625 -10.20625 30.0725 -10.3125 30.625 C-11.19428339 33.6711608 -12.41416174 36.25527994 -14 39 C-15.485 39.495 -15.485 39.495 -17 40 C-17.70710678 41.64991582 -18.36562656 43.3207762 -19 45 C-21.31022673 48.92738544 -22.81381729 51.2240437 -27 53 C-27.845625 53.721875 -28.69125 54.44375 -29.5625 55.1875 C-30.366875 55.785625 -31.17125 56.38375 -32 57 C-32.99 56.67 -33.98 56.34 -35 56 C-34.43152344 55.39414062 -33.86304688 54.78828125 -33.27734375 54.1640625 C-27.96888799 48.40363472 -23.30558762 42.53708572 -19 36 C-18.26652344 34.90429688 -17.53304688 33.80859375 -16.77734375 32.6796875 C-9.91818026 22.32124409 -4.38094236 11.64815264 0 0 Z " fill="#8CAED2" transform="translate(404,307)"/>
<path d="M0 0 C11.53846177 13.58452621 11.27183246 36.5212994 11.3125 53.3125 C11.31617584 54.04570465 11.31985168 54.7789093 11.32363892 55.53433228 C11.34712791 64.52232606 10.84823042 73.16721479 9 82 C8.67 82 8.34 82 8 82 C6.9516946 75.00054547 7.15029551 68.438994 7.73828125 61.3984375 C8.23710468 54.9211781 8.17137021 48.78174892 7.21875 42.3515625 C6.80514989 37.90536135 6.98609198 33.43688095 7.0625 28.9765625 C7.21408524 26.07122168 7.21408524 26.07122168 6 24 C5.95977609 21.6670134 5.95679753 19.33293334 6 17 C5.34 17 4.68 17 4 17 C3.33333333 15.66666667 2.66666667 14.33333333 2 13 C1.4740625 12.08734375 1.4740625 12.08734375 0.9375 11.15625 C-0.14175999 8.67395203 -0.20416324 6.94155007 -0.125 4.25 C-0.10695313 3.45078125 -0.08890625 2.6515625 -0.0703125 1.828125 C-0.04710937 1.22484375 -0.02390625 0.6215625 0 0 Z " fill="#286191" transform="translate(365,197)"/>
<path d="M0 0 C4.72633855 9.45267709 3.07109741 19.91374487 2.5625 30.3125 C2.52334473 31.15482178 2.48418945 31.99714355 2.44384766 32.86499023 C2.12090096 38.87909904 2.12090096 38.87909904 1 40 C0.67647018 41.53529607 0.39127349 43.07874517 0.125 44.625 C-0.87927022 49.89553094 -2.60371571 54.20743142 -5 59 C-5.66 59 -6.32 59 -7 59 C-7 61.64 -7 64.28 -7 67 C-8.485 67.495 -8.485 67.495 -10 68 C-9.37929597 63.7318599 -8.38949885 59.78867757 -7.0625 55.6875 C-5.43479457 50.48119311 -3.97957874 45.36562049 -3 40 C-2.82597656 39.0925 -2.65195312 38.185 -2.47265625 37.25 C-0.40638696 24.94287781 -0.34543455 12.44968576 0 0 Z " fill="#839EBC" transform="translate(415,239)"/>
<path d="M0 0 C1.31964262 2.63928523 0.76574469 4.35732241 -0.0546875 7.11328125 C-1.80233492 10.6013544 -4.90164702 12.73836801 -8 15 C-7.64202701 17.8144083 -7.17456212 18.84143361 -5.0390625 20.78125 C-4.24242187 21.3484375 -3.44578125 21.915625 -2.625 22.5 C2.18877702 25.94961219 5.23208806 29.25428619 7 35 C6.67 35.99 6.34 36.98 6 38 C3.65861457 35.71643754 1.32833018 33.42186626 -1 31.125 C-1.66773438 30.47402344 -2.33546875 29.82304687 -3.0234375 29.15234375 C-3.65507812 28.52714844 -4.28671875 27.90195312 -4.9375 27.2578125 C-5.52402344 26.6817627 -6.11054688 26.10571289 -6.71484375 25.51220703 C-8 24 -8 24 -8 22 C-8.66 22 -9.32 22 -10 22 C-12.40876913 20.08715392 -13.79939763 18.80240948 -14.5546875 15.78125 C-13.65780373 11.28419897 -10.36883178 9.10433601 -7 6.1875 C-6.33226562 5.59001953 -5.66453125 4.99253906 -4.9765625 4.37695312 C-3.32826641 2.90526019 -1.66967841 1.44732952 0 0 Z " fill="#83A1C1" transform="translate(368,364)"/>
<path d="M0 0 C2.64252625 2.63767758 5.2793837 5.28036172 7.90234375 7.9375 C8.91403892 8.9583567 9.92575791 9.9791898 10.9375 11 C11.43701172 11.50789063 11.93652344 12.01578125 12.45117188 12.5390625 C14.97644344 15.08062614 17.53117939 17.4842146 20.30859375 19.75 C23 22 23 22 24.125 24 C23.83157439 28.6948097 19.36172739 31.63818482 16.0625 34.5625 C13.09158438 37.10582589 10.08223298 39.59200549 7 42 C7.3125 39.625 7.3125 39.625 8 37 C8.99 36.34 9.98 35.68 11 35 C11 33.68 11 32.36 11 31 C12.65 30.67 14.3 30.34 16 30 C17.47118907 26.17490842 16.45442741 23.71687005 15 20 C14.67 19.34 14.34 18.68 14 18 C13.34 18 12.68 18 12 18 C10.63823078 16.35648543 9.31037934 14.68477344 8 13 C7.154375 12.154375 6.30875 11.30875 5.4375 10.4375 C3.35514628 8.35514628 1.536064 6.50620968 0 4 C0 2.68 0 1.36 0 0 Z " fill="#94B7DD" transform="translate(120,98)"/>
<path d="M0 0 C3.18472 1.34121597 5.04288095 3.43405395 7.328125 5.98046875 C5.328125 6.98046875 5.328125 6.98046875 2.578125 6.23046875 C-0.53532207 5.66188585 -0.53532207 5.66188585 -2.29296875 7.0234375 C-3.76234622 8.33158652 -5.21764376 9.65550251 -6.671875 10.98046875 C-7.661875 10.98046875 -8.651875 10.98046875 -9.671875 10.98046875 C-9.671875 11.97046875 -9.671875 12.96046875 -9.671875 13.98046875 C-11.1437517 15.22338685 -12.62117394 16.46136722 -14.14453125 17.640625 C-16.20069365 19.44436849 -17.32534993 21.62404988 -18.671875 23.98046875 C-19.331875 23.98046875 -19.991875 23.98046875 -20.671875 23.98046875 C-21.001875 24.97046875 -21.331875 25.96046875 -21.671875 26.98046875 C-25.234375 28.66796875 -25.234375 28.66796875 -28.671875 29.98046875 C-27.22645779 25.36363612 -24.58006364 22.34313592 -21.296875 18.91796875 C-20.76956787 18.36157715 -20.24226074 17.80518555 -19.69897461 17.23193359 C-18.59077335 16.06742763 -17.4789688 14.90634117 -16.36376953 13.74853516 C-14.68441133 11.99356949 -13.03471836 10.21407329 -11.38671875 8.4296875 C-10.33715365 7.32046258 -9.28641464 6.21234699 -8.234375 5.10546875 C-7.7511377 4.5755835 -7.26790039 4.04569824 -6.77001953 3.49975586 C-3.34851451 -0.02447745 -3.34851451 -0.02447745 0 0 Z " fill="#6C839D" transform="translate(112.671875,92.01953125)"/>
<path d="M0 0 C0.99 0 1.98 0 3 0 C-2.04322114 17.036553 -18.54666209 33.25302667 -32.140625 44.06640625 C-34 45 -34 45 -36.125 44.75 C-38.30836987 43.87665205 -39.46837674 42.76136675 -41 41 C-38.36 41.66 -35.72 42.32 -33 43 C-33 41.68 -33 40.36 -33 39 C-32.34 39 -31.68 39 -31 39 C-29.74783552 37.55012534 -28.50055213 36.09508259 -27.30078125 34.6015625 C-25.65775669 32.57861935 -23.94065076 30.73989379 -22 29 C-21.34 29 -20.68 29 -20 29 C-19.34 28.01 -18.68 27.02 -18 26 C-17.01 26 -16.02 26 -15 26 C-14.67 24.35 -14.34 22.7 -14 21 C-13.34 21 -12.68 21 -12 21 C-12 20.01 -12 19.02 -12 18 C-11.34 18 -10.68 18 -10 18 C-10 16.68 -10 15.36 -10 14 C-9.02246356 12.97803008 -8.0194119 11.98020375 -7 11 C-5.80972016 8.40084462 -5.80972016 8.40084462 -5 6 C-4.01 6 -3.02 6 -2 6 C-1.34 4.02 -0.68 2.04 0 0 Z " fill="#276998" transform="translate(361,306)"/>
<path d="M0 0 C4.54615135 3.71671496 6.52221361 8.66785773 8.9375 13.875 C9.37553955 14.80868408 9.8135791 15.74236816 10.26489258 16.7043457 C17.04625208 31.36262176 17.04625208 31.36262176 19 39 C18.67 39.66 18.34 40.32 18 41 C17.34 40.34 16.68 39.68 16 39 C16 37.68 16 36.36 16 35 C14.35 34.67 12.7 34.34 11 34 C10.7525 33.01 10.505 32.02 10.25 31 C9.22750924 27.37346804 7.68781419 24.20270478 5.90234375 20.89453125 C5 19 5 19 4.50390625 16.82421875 C4.33761719 16.22222656 4.17132813 15.62023437 4 15 C3.34 14.67 2.68 14.34 2 14 C0.90963072 11.0262656 0.96135834 10.11592499 2 7 C1.34 7 0.68 7 0 7 C0 4.69 0 2.38 0 0 Z " fill="#8AAAD3" transform="translate(431,144)"/>
<path d="M0 0 C0.33 0 0.66 0 1 0 C2.077114 5.26684571 2.16121476 10.35335443 2.16796875 15.703125 C2.17129715 16.62212585 2.17462555 17.54112671 2.17805481 18.48797607 C2.1830985 20.42101544 2.18546393 22.35406344 2.18530273 24.28710938 C2.187503 27.25404924 2.20572302 30.22062515 2.22460938 33.1875 C2.22754101 35.06770706 2.22952734 36.94791589 2.23046875 38.828125 C2.23765427 39.71767883 2.24483978 40.60723267 2.25224304 41.52374268 C2.22884147 47.77115853 2.22884147 47.77115853 0 50 C-0.86847579 44.7637033 -1.14704112 39.73623279 -1.1328125 34.43359375 C-1.13376923 33.63647476 -1.13472595 32.83935577 -1.13571167 32.01808167 C-1.13638835 30.3431897 -1.13457002 28.66829504 -1.13037109 26.9934082 C-1.12500842 24.44150876 -1.13033717 21.88978472 -1.13671875 19.33789062 C-1.13605802 17.70312461 -1.13477695 16.06835871 -1.1328125 14.43359375 C-1.13483673 13.67719101 -1.13686096 12.92078827 -1.13894653 12.14146423 C-1.12071165 7.98953262 -0.80988989 4.07317514 0 0 Z " fill="#647E99" transform="translate(41,225)"/>
<path d="M0 0 C2.26282351 4.25590647 3.3568255 8.60618545 4.5625 13.25 C4.78357422 14.07113281 5.00464844 14.89226562 5.23242188 15.73828125 C6.99541177 22.46001311 8.17163149 29.01558469 8.0625 36 C8.05347656 36.763125 8.04445313 37.52625 8.03515625 38.3125 C8.02355469 38.869375 8.01195312 39.42625 8 40 C6.04296875 39.29296875 6.04296875 39.29296875 4 38 C3.42578125 35.86328125 3.42578125 35.86328125 3.3125 33.3125 C3.25707031 32.4153125 3.20164062 31.518125 3.14453125 30.59375 C3.09683594 29.7378125 3.04914063 28.881875 3 28 C2.68330179 25.66435067 2.35179197 23.3306218 2 21 C1.855625 19.948125 1.71125 18.89625 1.5625 17.8125 C1.22483554 15.52388532 0.86390622 13.23826646 0.45703125 10.9609375 C0.26496094 9.88070312 0.07289063 8.80046875 -0.125 7.6875 C-0.31320312 6.66011719 -0.50140625 5.63273438 -0.6953125 4.57421875 C-1 2 -1 2 0 0 Z " fill="#88A6CD" transform="translate(450,185)"/>
<path d="M0 0 C3.50496269 1.94720149 6.49967216 3.82650697 9 7 C8.76661902 9.61492779 8.24056799 10.7535645 6.3984375 12.640625 C5.73070312 13.17171875 5.06296875 13.7028125 4.375 14.25 C0.77836105 17.25040468 -2.23429093 20.43308054 -5.2578125 24 C-8.0109226 27.16052101 -10.99681426 30.07896828 -14 33 C-14.33 32.34 -14.66 31.68 -15 31 C-15.66 30.67 -16.32 30.34 -17 30 C-15.35 29.67 -13.7 29.34 -12 29 C-11.9175 28.4225 -11.835 27.845 -11.75 27.25 C-10.78202213 24.3460664 -9.31305716 22.96259396 -7 21 C-6.34 21 -5.68 21 -5 21 C-4.773125 20.195625 -4.54625 19.39125 -4.3125 18.5625 C-3.879375 17.716875 -3.44625 16.87125 -3 16 C-0.375 15.1875 -0.375 15.1875 2 15 C2 13.68 2 12.36 2 11 C3.32 11 4.64 11 6 11 C4.63016497 7.83884224 4.0109362 7.0072908 1 5 C0.3125 2.375 0.3125 2.375 0 0 Z " fill="#1B4263" transform="translate(196,311)"/>
<path d="M0 0 C2.625 0.9375 2.625 0.9375 5 2 C4.7525 3.03125 4.505 4.0625 4.25 5.125 C3.94130879 9.90971371 5.1560906 11.2622905 8 15 C10.3258087 19.41903654 10.1658937 23.10613592 10 28 C10.99 28.33 11.98 28.66 13 29 C13 37.25 13 45.5 13 54 C12.01 54.495 12.01 54.495 11 55 C11.00523682 54.31897217 11.01047363 53.63794434 11.01586914 52.9362793 C11.03664458 49.85336223 11.04966198 46.7704599 11.0625 43.6875 C11.07087891 42.61564453 11.07925781 41.54378906 11.08789062 40.43945312 C11.09111328 39.41142578 11.09433594 38.38339844 11.09765625 37.32421875 C11.10289307 36.37635498 11.10812988 35.42849121 11.11352539 34.4519043 C11.10498854 31.86161319 11.10498854 31.86161319 10 29 C9.34 29 8.68 29 8 29 C7.78085937 28.06800781 7.56171875 27.13601562 7.3359375 26.17578125 C5.10216218 17.19527803 2.19359896 9.28934728 -2 1 C-1.34 0.67 -0.68 0.34 0 0 Z " fill="#25699B" transform="translate(322,208)"/>
<path d="M0 0 C4.6891871 0.13791727 7.2659249 2.5953762 10.64453125 5.52734375 C12 7 12 7 12 9 C12.66 9 13.32 9 14 9 C15.65625 10.609375 15.65625 10.609375 17.5 12.75 C18.1084375 13.44609375 18.716875 14.1421875 19.34375 14.859375 C20.87976963 16.84460792 21.9723966 18.71872045 23 21 C20.1875 20.875 20.1875 20.875 17 20 C15.96567096 18.01753602 14.96761608 16.01586684 14 14 C11.08333333 12.33333333 11.08333333 12.33333333 8 11 C5.625 9.0625 5.625 9.0625 4 7 C4 5.68 4 4.36 4 3 C1.61435923 3.57584432 -0.66682784 4.22227595 -3 5 C-1.125 1.125 -1.125 1.125 0 0 Z " fill="#859FC3" transform="translate(385,91)"/>
<path d="M0 0 C2.93702257 1.26727085 4.65519099 3.17122883 6.859375 5.47265625 C7.65859375 6.29894531 8.4578125 7.12523437 9.28125 7.9765625 C10.18617188 8.93369141 10.18617188 8.93369141 11.109375 9.91015625 C9.129375 10.90015625 9.129375 10.90015625 7.109375 11.91015625 C3.109375 7.16015625 3.109375 7.16015625 3.109375 4.91015625 C-0.30705259 4.65999752 -0.30705259 4.65999752 -3.890625 4.91015625 C-4.880625 6.39515625 -4.880625 6.39515625 -5.890625 7.91015625 C-6.550625 7.91015625 -7.210625 7.91015625 -7.890625 7.91015625 C-7.890625 8.57015625 -7.890625 9.23015625 -7.890625 9.91015625 C-8.53 10.13703125 -9.169375 10.36390625 -9.828125 10.59765625 C-10.50875 11.03078125 -11.189375 11.46390625 -11.890625 11.91015625 C-12.0453125 13.08578125 -12.0453125 13.08578125 -12.203125 14.28515625 C-13.02344694 17.41729455 -13.63346201 17.68831893 -16.328125 19.28515625 C-17.50375 19.82140625 -18.679375 20.35765625 -19.890625 20.91015625 C-20.550625 20.58015625 -21.210625 20.25015625 -21.890625 19.91015625 C-4.89853764 -0.23278175 -4.89853764 -0.23278175 0 0 Z " fill="#285E8A" transform="translate(171.890625,151.08984375)"/>
<path d="M0 0 C0.33 0.99 0.66 1.98 1 3 C0.67 3.66 0.34 4.32 0 5 C-3.0625 5.625 -3.0625 5.625 -6 6 C-4.84181968 9.47454097 -4.07520138 9.85110238 -1.125 11.8125 C2.56834101 14.45060072 4.22617818 16.76253676 6 21 C6.66 21.33 7.32 21.66 8 22 C8.625 25.0625 8.625 25.0625 9 28 C4.39175702 24.238169 0.41368733 20.36986351 -3.41796875 15.8203125 C-5.06895145 13.84578667 -5.06895145 13.84578667 -7.5 11.75 C-8.2425 10.88375 -8.2425 10.88375 -9 10 C-8.77756533 7.21671493 -8.22014955 6.20292855 -6.15234375 4.296875 C-5.42144531 3.78640625 -4.69054687 3.2759375 -3.9375 2.75 C-3.20402344 2.22921875 -2.47054688 1.7084375 -1.71484375 1.171875 C-1.14894531 0.78515625 -0.58304687 0.3984375 0 0 Z " fill="#215D93" transform="translate(303,311)"/>
<path d="M0 0 C0.625 1.8125 0.625 1.8125 1 4 C0.01 5.485 0.01 5.485 -1 7 C-1.66 7 -2.32 7 -3 7 C-3 9.64 -3 12.28 -3 15 C-3.66 15 -4.32 15 -5 15 C-5.33 17.31 -5.66 19.62 -6 22 C-6.99 22.33 -7.98 22.66 -9 23 C-9.12375 23.763125 -9.2475 24.52625 -9.375 25.3125 C-10 28 -10 28 -12 31 C-12.99 31 -13.98 31 -15 31 C-14.09603482 25.73226426 -12.04167239 21.41600442 -9.75 16.625 C-9.36714844 15.8 -8.98429687 14.975 -8.58984375 14.125 C-6.15671284 8.99833622 -3.43462436 4.51860155 0 0 Z " fill="#8AA9CB" transform="translate(70,141)"/>
<path d="M0 0 C2.475 0.495 2.475 0.495 5 1 C5.144375 1.639375 5.28875 2.27875 5.4375 2.9375 C5.81007181 4.97545146 5.81007181 4.97545146 7 6 C7.99 6 8.98 6 10 6 C10.99 9.3 11.98 12.6 13 16 C13.66 16 14.32 16 15 16 C15 17.32 15 18.64 15 20 C16.65 20 18.3 20 20 20 C19.67 21.98 19.34 23.96 19 26 C11.65200829 18.82018416 5.0541794 10.96709249 0 2 C0 1.34 0 0.68 0 0 Z " fill="#226094" transform="translate(138,310)"/>
<path d="M0 0 C0.66 0.33 1.32 0.66 2 1 C0.69885429 7.78650209 -1.35142236 13.74599545 -4.125 20.0625 C-4.49753906 20.92810547 -4.87007813 21.79371094 -5.25390625 22.68554688 C-6.16230681 24.79350202 -7.07771194 26.89809334 -8 29 C-9.87529531 25.57774392 -10.13417769 24.06244907 -9.125 20.25 C-8.92132813 19.45078125 -8.71765625 18.6515625 -8.5078125 17.828125 C-8.25644531 16.92320312 -8.25644531 16.92320312 -8 16 C-7.34 16 -6.68 16 -6 16 C-6 14.35 -6 12.7 -6 11 C-5.34 11 -4.68 11 -4 11 C-3.69255859 9.93458984 -3.69255859 9.93458984 -3.37890625 8.84765625 C-3.10949219 7.92855469 -2.84007812 7.00945312 -2.5625 6.0625 C-2.29566406 5.14597656 -2.02882813 4.22945313 -1.75390625 3.28515625 C-1 1 -1 1 0 0 Z " fill="#7F9ABB" transform="translate(449,311)"/>
<path d="M0 0 C2.29656078 4.09464325 2.07885058 6.37635465 1 11 C-0.06746255 13.84319409 -1.14348973 16.58358981 -3 19 C-5.13671875 19.7265625 -5.13671875 19.7265625 -7 20 C-7.66 22.31 -8.32 24.62 -9 27 C-9.99 26.34 -10.98 25.68 -12 25 C-11.46890625 24.03320312 -10.9378125 23.06640625 -10.390625 22.0703125 C-6.46787273 14.86346021 -2.77068745 7.74698795 0 0 Z " fill="#7E99B6" transform="translate(404,307)"/>
<path d="M0 0 C1.2380014 3.57644848 0.74926071 6.33694766 0 10 C-0.99 10.33 -1.98 10.66 -3 11 C-3.60061233 12.90178785 -3.60061233 12.90178785 -4 15 C-4.99 16.485 -4.99 16.485 -6 18 C-6.66 18 -7.32 18 -8 18 C-8.226875 18.7425 -8.45375 19.485 -8.6875 20.25 C-10.7062052 24.47966804 -13.59158687 26.37403861 -17.8125 28.25 C-18.534375 28.4975 -19.25625 28.745 -20 29 C-18.7315625 27.5459375 -18.7315625 27.5459375 -17.4375 26.0625 C-10.43840295 17.84473664 -4.83832673 9.67665345 0 0 Z " fill="#1D557E" transform="translate(324,282)"/>
<path d="M0 0 C3.43927579 1.2419607 6.25207819 2.55740284 9 5 C9 5.66 9 6.32 9 7 C9.58265625 7.25523437 10.1653125 7.51046875 10.765625 7.7734375 C13.21388223 9.11741087 14.81743248 10.61810296 16.75 12.625 C17.36359375 13.25664062 17.9771875 13.88828125 18.609375 14.5390625 C19.06828125 15.02117187 19.5271875 15.50328125 20 16 C19.34 16.66 18.68 17.32 18 18 C15.5 16.75 15.5 16.75 13 15 C13 13.68 13 12.36 13 11 C12.01 11 11.02 11 10 11 C9.34 10.34 8.68 9.68 8 9 C7.01 9 6.02 9 5 9 C5 8.34 5 7.68 5 7 C4.34 7 3.68 7 3 7 C2.34 6.01 1.68 5.02 1 4 C-0.65 4.33 -2.3 4.66 -4 5 C-2.68 3.35 -1.36 1.7 0 0 Z " fill="#245F90" transform="translate(326,150)"/>
<path d="M0 0 C2.38807841 4.77615683 -0.62912139 12.59066129 -1.9375 17.5625 C-3.00313997 20.00720346 -3.87186979 21.40390234 -6 23 C-6.66 23 -7.32 23 -8 23 C-8.52218345 16.79091236 -6.93170515 12.97525969 -4 7.5625 C-3.6184375 6.83095703 -3.236875 6.09941406 -2.84375 5.34570312 C-1.90853443 3.55710335 -0.95600621 1.77757404 0 0 Z " fill="#286CAA" transform="translate(139,187)"/>
<path d="M0 0 C7 7 14 14 21 21 C16.25 21.125 16.25 21.125 14 20 C14 19.34 14 18.68 14 18 C13.34 18 12.68 18 12 18 C10.63823078 16.35648543 9.31037934 14.68477344 8 13 C7.154375 12.154375 6.30875 11.30875 5.4375 10.4375 C3.35514628 8.35514628 1.536064 6.50620968 0 4 C0 2.68 0 1.36 0 0 Z " fill="#829CBB" transform="translate(120,98)"/>
<path d="M0 0 C1.65 0 3.3 0 5 0 C5.28875 0.61875 5.5775 1.2375 5.875 1.875 C6.93720042 4.13325765 6.93720042 4.13325765 9 6 C12.32571178 11.17332943 12.10148066 14.19219286 11 20 C8.12510796 16.38967046 6.25498209 12.58739825 4.28125 8.4375 C3.06427221 5.9611227 3.06427221 5.9611227 1.34375 3.8125 C0 2 0 2 0 0 Z " fill="#88A8C9" transform="translate(389,162)"/>
<path d="M0 0 C0.99 0.33 1.98 0.66 3 1 C1.59794755 3.94372839 -0.00343262 6.62213369 -1.8203125 9.328125 C-2.35527344 10.12734375 -2.89023438 10.9265625 -3.44140625 11.75 C-4.27478516 12.9875 -4.27478516 12.9875 -5.125 14.25 C-5.96998047 15.51070312 -5.96998047 15.51070312 -6.83203125 16.796875 C-8.21927849 18.86598953 -9.60866371 20.93363383 -11 23 C-12.44886775 18.53592099 -11.07738263 16.15476525 -9 12 C-7.5 9.5625 -7.5 9.5625 -6 8 C-5.01 8 -4.02 8 -3 8 C-3 6.68 -3 5.36 -3 4 C-2.67 3.34 -2.34 2.68 -2 2 C-1.34 2 -0.68 2 0 2 C0 1.34 0 0.68 0 0 Z " fill="#7894B2" transform="translate(119,145)"/>
<path d="M0 0 C0.33 0.66 0.66 1.32 1 2 C0.2884375 3.175625 0.2884375 3.175625 -0.4375 4.375 C-2.34098924 7.06372236 -2.34098924 7.06372236 -2 11 C-1.01 11.66 -0.02 12.32 1 13 C2 14 2 14 2.0625 16.5625 C2.041875 17.366875 2.02125 18.17125 2 19 C0.70684939 18.04367001 -0.58446853 17.08486149 -1.875 16.125 C-2.59429687 15.59132812 -3.31359375 15.05765625 -4.0546875 14.5078125 C-6 13 -6 13 -8 11 C-8.0625 8.75 -8.0625 8.75 -7 6 C-4.82440524 3.78797184 -2.46832991 1.87541516 0 0 Z " fill="#225583" transform="translate(304,172)"/>
<path d="M0 0 C2.475 0.495 2.475 0.495 5 1 C5 2.32 5 3.64 5 5 C5.66 5.33 6.32 5.66 7 6 C9.22051444 9.33077166 9.08706099 12.08225551 9 16 C9.33 16.33 9.66 16.66 10 17 C10.04063832 18.66617115 10.042721 20.33388095 10 22 C7.01643474 19.01643474 5.6482605 15.35652556 3.875 11.5625 C3.50246094 10.78583984 3.12992188 10.00917969 2.74609375 9.20898438 C2.39417969 8.46068359 2.04226562 7.71238281 1.6796875 6.94140625 C1.35726074 6.25763916 1.03483398 5.57387207 0.70263672 4.86938477 C0 3 0 3 0 0 Z " fill="#7491A9" transform="translate(55,328)"/>
<path d="M0 0 C7.32349992 8.58322731 8.88183032 22.16877425 10 33 C9.34 33 8.68 33 8 33 C6.61470179 27.54538831 5.7603057 22.63281599 6 17 C5.34 17 4.68 17 4 17 C3.33333333 15.66666667 2.66666667 14.33333333 2 13 C1.4740625 12.08734375 1.4740625 12.08734375 0.9375 11.15625 C-0.14175999 8.67395203 -0.20416324 6.94155007 -0.125 4.25 C-0.10695313 3.45078125 -0.08890625 2.6515625 -0.0703125 1.828125 C-0.04710937 1.22484375 -0.02390625 0.6215625 0 0 Z " fill="#265889" transform="translate(365,197)"/>
<path d="M0 0 C0.66 0.33 1.32 0.66 2 1 C2 3.64 2 6.28 2 9 C2.66 9 3.32 9 4 9 C4.66 13.62 5.32 18.24 6 23 C5.01 23.33 4.02 23.66 3 24 C3 26.31 3 28.62 3 31 C2.67 31 2.34 31 2 31 C1.86722656 29.75863281 1.73445313 28.51726562 1.59765625 27.23828125 C1.41938849 25.59634139 1.24099654 23.95441501 1.0625 22.3125 C0.93198242 21.08756836 0.93198242 21.08756836 0.79882812 19.83789062 C0.4427928 16.58082676 0.08349755 13.39551471 -0.59375 10.1875 C-1.24985395 6.65463258 -0.5390425 3.53372305 0 0 Z " fill="#8AABD1" transform="translate(81,246)"/>
<path d="M0 0 C2 1 2 1 2.62364197 2.7300415 C3.05202562 5.31378632 3.07785935 7.69989698 3.02172852 10.31933594 C3.00163223 11.38013367 2.98153595 12.4409314 2.96083069 13.53387451 C2.93379562 14.67253967 2.90676056 15.81120483 2.87890625 16.984375 C2.85529526 18.15510559 2.83168427 19.32583618 2.80735779 20.53204346 C2.73078198 24.27148751 2.64673096 28.01072131 2.5625 31.75 C2.50927326 34.28514596 2.4565329 36.82030218 2.40429688 39.35546875 C2.27517498 45.5704426 2.13991524 51.78526028 2 58 C1.67 58 1.34 58 1 58 C0.505 29.29 0.505 29.29 0 0 Z " fill="#85A4C7" transform="translate(42,218)"/>
<path d="M0 0 C2.475 0.99 2.475 0.99 5 2 C5 2.66 5 3.32 5 4 C6.65002828 5.35386936 8.3174387 6.68678142 10 8 C10.33 8.66 10.66 9.32 11 10 C11.66 10.33 12.32 10.66 13 11 C13 12.65 13 14.3 13 16 C12.34 16.33 11.68 16.66 11 17 C9.84852339 15.73427767 8.70400686 14.46222094 7.5625 13.1875 C6.60537109 12.12595703 6.60537109 12.12595703 5.62890625 11.04296875 C4 9 4 9 3 6 C1.68352881 5.30062468 0.34977849 4.63270867 -1 4 C-1.33 3.34 -1.66 2.68 -2 2 C-1.34 2 -0.68 2 0 2 C0 1.34 0 0.68 0 0 Z " fill="#8BA6CC" transform="translate(363,126)"/>
<path d="M0 0 C4.98204139 4.13403434 9.56659962 8.50475038 14.08203125 13.14453125 C15.87004138 15.06021793 15.87004138 15.06021793 18 16 C17.67 16.99 17.34 17.98 17 19 C15.0625 18.6875 15.0625 18.6875 13 18 C12.67 17.01 12.34 16.02 12 15 C11.34 15 10.68 15 10 15 C9.67 13.35 9.34 11.7 9 10 C7.68 10.33 6.36 10.66 5 11 C4.16151196 9.54462432 3.32936066 8.08559627 2.5 6.625 C1.80390625 5.40683594 1.80390625 5.40683594 1.09375 4.1640625 C0 2 0 2 0 0 Z " fill="#245F91" transform="translate(183,162)"/>
<path d="M0 0 C1.65 0 3.3 0 5 0 C3.5102402 8.49163085 0.31428738 16.0894839 -3 24 C-3.33 24 -3.66 24 -4 24 C-4.25 18.375 -4.25 18.375 -2 15 C-1.5437208 12.42286746 -1.17054724 9.90701715 -0.875 7.3125 C-0.78863281 6.61060547 -0.70226562 5.90871094 -0.61328125 5.18554688 C-0.40173125 3.45788855 -0.199914 1.7290434 0 0 Z " fill="#26588C" transform="translate(368,282)"/>
<path d="M0 0 C5.44375692 5.27879459 10.50645156 10.88605076 15 17 C11.01440712 17.08133863 9.00176865 16.91910797 6.01171875 14.17578125 C2.2107562 9.540653 0.12816492 6.02375147 0 0 Z " fill="#8AA7C4" transform="translate(121,352)"/>
<path d="M0 0 C0.66 0.99 1.32 1.98 2 3 C1.20883565 6.75803065 0.00977389 7.99205871 -3 10.4375 C-6.25583994 13.21852995 -7.0469276 14.90178869 -8 19 C-9.32 19 -10.64 19 -12 19 C-10.60736986 13.73361707 -8.22915161 10.27775914 -4.875 6.125 C-4.40707031 5.53203125 -3.93914062 4.9390625 -3.45703125 4.328125 C-2.31214408 2.87949226 -1.15709683 1.43889901 0 0 Z " fill="#7C96B5" transform="translate(83,122)"/>
<path d="M0 0 C1.33333333 0.66666667 2.66666667 1.33333333 4 2 C4.721875 2.226875 5.44375 2.45375 6.1875 2.6875 C8 4 8 4 8.75 7.625 C8.87375 9.295625 8.87375 9.295625 9 11 C9.99 11 10.98 11 12 11 C14 13 14 13 14.125 16.625 C14.08375 17.73875 14.0425 18.8525 14 20 C9.99248863 16.27009599 7.07743764 12.38544073 4.1875 7.75 C3.57745117 6.79480469 3.57745117 6.79480469 2.95507812 5.8203125 C0 1.15178571 0 1.15178571 0 0 Z " fill="#778CA6" transform="translate(65,351)"/>
<path d="M0 0 C2.2701469 2.85919376 3.96719222 5.71936708 5.5625 9 C5.97628906 9.845625 6.39007813 10.69125 6.81640625 11.5625 C7.20699219 12.366875 7.59757812 13.17125 8 14 C8.66486304 15.33423362 9.33086763 16.66790237 10 18 C8.02 18.99 8.02 18.99 6 20 C5.71125 19.0925 5.4225 18.185 5.125 17.25 C3.5260998 12.46923034 3.5260998 12.46923034 0.5 8.5625 C-1.39903312 6.5843405 -2.09899031 4.56441218 -3 2 C-2.01 1.34 -1.02 0.68 0 0 Z " fill="#7794B2" transform="translate(100,318)"/>
<path d="M0 0 C0.99 0 1.98 0 3 0 C1.65254881 4.68098928 -0.27223729 8.28604144 -3 12.3125 C-3.70125 13.36050781 -4.4025 14.40851563 -5.125 15.48828125 C-7 18 -7 18 -9 19 C-9.63934602 13.88523181 -7.40533547 10.32745622 -5 6 C-4.01 6 -3.02 6 -2 6 C-1.34 4.02 -0.68 2.04 0 0 Z " fill="#225584" transform="translate(361,306)"/>
<path d="M0 0 C4.83256305 0.41421969 6.82679218 2.46413986 10 6 C8 7 8 7 5.25 6.25 C2.13445957 5.68549202 2.13445957 5.68549202 0.34375 7.04296875 C-1.13027307 8.33273894 -2.56704703 9.66474837 -4 11 C-4.66 11 -5.32 11 -6 11 C-4.79135813 7.56001929 -3.61442808 5.50075729 -1 3 C-0.67 2.01 -0.34 1.02 0 0 Z " fill="#8EAED4" transform="translate(110,92)"/>
<path d="M0 0 C0.66 0.33 1.32 0.66 2 1 C0.75991781 3.58852107 -0.49147214 6.17046417 -1.75 8.75 C-2.09804688 9.47960937 -2.44609375 10.20921875 -2.8046875 10.9609375 C-4.76138746 14.94680779 -6.56609446 18.06107184 -10 21 C-10.08886184 17.80097361 -9.91058531 15.07322544 -9 12 C-8.34 12 -7.68 12 -7 12 C-6.731875 11.195625 -6.46375 10.39125 -6.1875 9.5625 C-5.795625 8.716875 -5.40375 7.87125 -5 7 C-4.01 6.67 -3.02 6.34 -2 6 C-1.32843384 4.06381575 -1.32843384 4.06381575 -1 2 C-0.67 1.34 -0.34 0.68 0 0 Z " fill="#6F86A8" transform="translate(438,340)"/>
<path d="M0 0 C6.27554803 5.53724826 10.86357724 12.8815935 13 21 C7.30668127 17.78203724 7.30668127 17.78203724 5.75 13.8125 C5.37875 12.4203125 5.37875 12.4203125 5 11 C4.34 10.67 3.68 10.34 3 10 C2.375 7.4375 2.375 7.4375 2 5 C1.34 5 0.68 5 0 5 C0 3.35 0 1.7 0 0 Z " fill="#1F4B72" transform="translate(352,175)"/>
<path d="M0 0 C1.91812952 3.58411056 3.29731427 7.3089601 4.6875 11.125 C4.92533203 11.75792969 5.16316406 12.39085937 5.40820312 13.04296875 C5.99891484 14.67478822 6.50591524 16.33637283 7 18 C6.67 18.66 6.34 19.32 6 20 C5.01 19.67 4.02 19.34 3 19 C3 18.34 3 17.68 3 17 C2.34 17 1.68 17 1 17 C-1.64812363 11.2364368 -0.8019749 6.09067424 0 0 Z " fill="#799DC0" transform="translate(90,290)"/>
<path d="M0 0 C7.5149786 4.98145506 7.5149786 4.98145506 9.25 8.625 C8.90672815 11.88608254 7.4788525 12.97184796 5 15 C4.87625 14.195625 4.7525 13.39125 4.625 12.5625 C4.41875 11.716875 4.2125 10.87125 4 10 C3.34 9.67 2.68 9.34 2 9 C2 8.01 2 7.02 2 6 C1.34 5.67 0.68 5.34 0 5 C0 3.35 0 1.7 0 0 Z " fill="#88A9C9" transform="translate(136,369)"/>
<path d="M0 0 C1.98 0.99 1.98 0.99 4 2 C4 2.66 4 3.32 4 4 C5.670625 4.6496875 5.670625 4.6496875 7.375 5.3125 C11 7 11 7 13 10 C13.39387788 12.32387947 13.73486085 14.65793749 14 17 C8.18081456 12.60012808 2.35046465 7.05139394 0 0 Z " fill="#7B94AB" transform="translate(84,378)"/>
<path d="M0 0 C0.33 0.66 0.66 1.32 1 2 C-1.08264794 6.24243099 -2.77562318 9.60618647 -7 12 C-7.66 12 -8.32 12 -9 12 C-9.226875 12.639375 -9.45375 13.27875 -9.6875 13.9375 C-11 16 -11 16 -13.625 16.75 C-14.40875 16.8325 -15.1925 16.915 -16 17 C-11.01595832 10.96668638 -5.58084697 5.4815829 0 0 Z " fill="#1A5283" transform="translate(321,155)"/>
<path d="M0 0 C1.09180878 3.30529345 0.88297902 5.42086032 0.00390625 8.765625 C-0.33930664 10.09980469 -0.33930664 10.09980469 -0.68945312 11.4609375 C-0.93630859 12.38132812 -1.18316406 13.30171875 -1.4375 14.25 C-1.68048828 15.18585938 -1.92347656 16.12171875 -2.17382812 17.0859375 C-2.77412867 19.3929749 -3.38310665 21.69735439 -4 24 C-5.51171875 22.64453125 -5.51171875 22.64453125 -7 21 C-6.68924106 17.16730635 -5.234395 13.62603531 -4 10 C-3.40683522 7.86460679 -3 6.21174384 -3 4 C-2.34 3.67 -1.68 3.34 -1 3 C-0.67 2.01 -0.34 1.02 0 0 Z " fill="#6C829B" transform="translate(456,288)"/>
<path d="M0 0 C0.66666667 1.33333333 1.33333333 2.66666667 2 4 C2.31839844 4.55171875 2.63679688 5.1034375 2.96484375 5.671875 C4.37583534 8.84527494 5.01967 12.11150297 5.6875 15.5 C5.82994141 16.16386719 5.97238281 16.82773438 6.11914062 17.51171875 C6.80884122 20.94992771 7.26537309 23.67096477 6 27 C4.04196636 22.4087487 2.91887289 17.78476277 1.78125 12.9375 C0.73824351 9.01579559 -0.10053372 5.89946628 -3 3 C-2.01 2.01 -1.02 1.02 0 0 Z " fill="#8AACD4" transform="translate(446,179)"/>
<path d="M0 0 C4.875 3.75 4.875 3.75 6 6 C6.039992 7.99960012 6.04346799 10.00047242 6 12 C6.66 12 7.32 12 8 12 C8.33 13.65 8.66 15.3 9 17 C9.66 17 10.32 17 11 17 C10.67 17.99 10.34 18.98 10 20 C9.34 19.34 8.68 18.68 8 18 C8 17.01 8 16.02 8 15 C7.34 14.67 6.68 14.34 6 14 C5 13 5 13 4.9375 10.4375 C4.958125 9.633125 4.97875 8.82875 5 8 C2.03 7.505 2.03 7.505 -1 7 C-1.33 5.35 -1.66 3.7 -2 2 C-1.34 2 -0.68 2 0 2 C0 1.34 0 0.68 0 0 Z " fill="#266EB0" transform="translate(346,168)"/>
<path d="M0 0 C0.66 0 1.32 0 2 0 C1.69029106 5.38493928 -1.35430107 7.82467404 -5.0625 11.3125 C-5.63033203 11.86228516 -6.19816406 12.41207031 -6.78320312 12.97851562 C-8.17990925 14.32827365 -9.58878837 15.66541525 -11 17 C-11.33 16.34 -11.66 15.68 -12 15 C-12.66 14.67 -13.32 14.34 -14 14 C-12.35 13.67 -10.7 13.34 -9 13 C-8.9175 12.4225 -8.835 11.845 -8.75 11.25 C-7.78202213 8.3460664 -6.31305716 6.96259396 -4 5 C-3.34 5 -2.68 5 -2 5 C-1.34 3.35 -0.68 1.7 0 0 Z " fill="#214E89" transform="translate(193,327)"/>
<path d="M0 0 C0.99 0.33 1.98 0.66 3 1 C2.44570312 2.09699219 1.89140625 3.19398438 1.3203125 4.32421875 C0.58843442 5.77859187 -0.14333045 7.23302196 -0.875 8.6875 C-1.23980469 9.40873047 -1.60460937 10.12996094 -1.98046875 10.87304688 C-3.8179242 14.53125364 -5.56138502 18.1611695 -7 22 C-7.33 22 -7.66 22 -8 22 C-8 19.36 -8 16.72 -8 14 C-7.34 13.67 -6.68 13.34 -6 13 C-5.08968728 10.65613191 -5.08968728 10.65613191 -4.375 7.9375 C-4.11460937 7.01839844 -3.85421875 6.09929687 -3.5859375 5.15234375 C-3.39257812 4.44207031 -3.19921875 3.73179687 -3 3 C-2.34 3 -1.68 3 -1 3 C-0.67 2.01 -0.34 1.02 0 0 Z " fill="#2D6595" transform="translate(180,204)"/>
<path d="M0 0 C0.33 0.99 0.66 1.98 1 3 C0.19175781 3.73605469 -0.61648437 4.47210938 -1.44921875 5.23046875 C-2.52870221 6.21608409 -3.60812612 7.20176465 -4.6875 8.1875 C-5.48317383 8.91163086 -5.48317383 8.91163086 -6.29492188 9.65039062 C-9.61727252 12.687386 -12.84058321 15.7936902 -16 19 C-16 17.68 -16 16.36 -16 15 C-15.34 15 -14.68 15 -14 15 C-13.34 13.68 -12.68 12.36 -12 11 C-11.34 11 -10.68 11 -10 11 C-10 10.01 -10 9.02 -10 8 C-8.3203125 6.39453125 -8.3203125 6.39453125 -6.125 4.8125 C-5.40570313 4.28269531 -4.68640625 3.75289062 -3.9453125 3.20703125 C-2 2 -2 2 0 2 C0 1.34 0 0.68 0 0 Z " fill="#2A5687" transform="translate(202,181)"/>
<path d="M0 0 C1.98 0 3.96 0 6 0 C4.4323428 3.84788585 2.20670904 6.37632897 -1 9 C-4.1875 9.5 -4.1875 9.5 -7 9 C-7.66 8.01 -8.32 7.02 -9 6 C-7.88625 5.896875 -6.7725 5.79375 -5.625 5.6875 C-4.42875 5.460625 -3.2325 5.23375 -2 5 C0.18490007 2.32357511 0.18490007 2.32357511 0 0 Z " fill="#6E7E9E" transform="translate(389,401)"/>
<path d="M0 0 C0.94875 0.350625 1.8975 0.70125 2.875 1.0625 C5.87060172 2.35026777 5.87060172 2.35026777 8 1 C10.31966166 3.84685749 11.91581154 6.4763875 13 10 C12.67 10.99 12.34 11.98 12 13 C9.99698146 11.0238076 7.99750133 9.04425526 6 7.0625 C5.42765625 6.49853516 4.8553125 5.93457031 4.265625 5.35351562 C2.82474495 3.92121224 1.41012857 2.46258871 0 1 C0 0.67 0 0.34 0 0 Z " fill="#7890AE" transform="translate(362,389)"/>
<path d="M0 0 C0.99 0.33 1.98 0.66 3 1 C2.38797831 4.57012651 1.41529186 7.66990152 0 11 C-0.37125 11.928125 -0.7425 12.85625 -1.125 13.8125 C-1.41375 14.534375 -1.7025 15.25625 -2 16 C-2.99 16 -3.98 16 -5 16 C-3.90301833 10.30860098 -2.45946923 5.25432063 0 0 Z " fill="#7591AF" transform="translate(54,172)"/>
<path d="M0 0 C1.32 0.66 2.64 1.32 4 2 C1.03 5.3 -1.94 8.6 -5 12 C-5.33 11.01 -5.66 10.02 -6 9 C-6.66 8.67 -7.32 8.34 -8 8 C-6 5 -6 5 -3 3 C-1.98131338 2.01904252 -0.97648017 1.02297922 0 0 Z " fill="#758BAA" transform="translate(407,384)"/>
<path d="M0 0 C1.31223496 3.93670488 0.24296256 6.12488144 -1 10 C-1.66 10 -2.32 10 -3 10 C-2.979375 11.299375 -2.95875 12.59875 -2.9375 13.9375 C-2.91600546 15.29165633 -2.92851801 16.64756083 -3 18 C-3.33 18.33 -3.66 18.66 -4 19 C-4.23427778 21.01594582 -4.41336124 23.038474 -4.5625 25.0625 C-4.64628906 26.16722656 -4.73007813 27.27195313 -4.81640625 28.41015625 C-4.87699219 29.26480469 -4.93757812 30.11945313 -5 31 C-5.66 31 -6.32 31 -7 31 C-6.67 26.05 -6.34 21.1 -6 16 C-5.34 16 -4.68 16 -4 16 C-4.02320313 15.40832031 -4.04640625 14.81664062 -4.0703125 14.20703125 C-4.17411464 9.66198041 -4.13708357 6.14059941 -2 2 C-1.34 2 -0.68 2 0 2 C0 1.34 0 0.68 0 0 Z " fill="#206BAC" transform="translate(133,208)"/>
<path d="M0 0 C0.66 0.33 1.32 0.66 2 1 C1.48194893 4.96001753 -0.22280479 6.41052745 -3.3125 8.8125 C-4.09238281 9.43769531 -4.87226563 10.06289063 -5.67578125 10.70703125 C-8 12 -8 12 -10.18359375 11.796875 C-12.29273718 10.87157337 -13.49763804 9.72771626 -15 8 C-12.36 8.66 -9.72 9.32 -7 10 C-7 8.68 -7 7.36 -7 6 C-6.34 6 -5.68 6 -5 6 C-3.2856382 4.04072937 -1.61594832 2.04119788 0 0 Z " fill="#296195" transform="translate(335,339)"/>
<path d="M0 0 C0.99 0 1.98 0 3 0 C5.19162836 3.59427052 6.02219725 5.54865583 5.8125 9.8125 C5.544375 10.864375 5.27625 11.91625 5 13 C4.01 13.495 4.01 13.495 3 14 C0.96006486 9.07015675 -0.40652968 5.42039575 0 0 Z " fill="#276CA9" transform="translate(129,285)"/>
<path d="M0 0 C1.9375 0.75 1.9375 0.75 4 2 C4.75 4.125 4.75 4.125 5 6 C5.99 6 6.98 6 8 6 C11 8 11 8 12 11 C12.66 11.66 13.32 12.32 14 13 C13.01 13.33 12.02 13.66 11 14 C9.15396505 12.42967157 7.3240653 10.84549692 5.5 9.25 C4.97535156 8.8065625 4.45070312 8.363125 3.91015625 7.90625 C2.40625 6.578125 2.40625 6.578125 0 4 C0 2.68 0 1.36 0 0 Z " fill="#276AA3" transform="translate(157,333)"/>
<path d="M0 0 C3.81288101 6.10060962 3.14454964 14.06161708 3 21 C2.01 20.34 1.02 19.68 0 19 C-0.41507179 16.46806206 -0.64876936 14.17022747 -0.75 11.625 C-0.79253906 10.95210937 -0.83507812 10.27921875 -0.87890625 9.5859375 C-1.05818079 6.21292022 -1.08965109 3.21942369 0 0 Z " fill="#6982A3" transform="translate(455,204)"/>
<path d="M0 0 C0.66 0.33 1.32 0.66 2 1 C1.34 2.65 0.68 4.3 0 6 C-0.66 6 -1.32 6 -2 6 C-2.33 6.99 -2.66 7.98 -3 9 C-6.5625 10.6875 -6.5625 10.6875 -10 12 C-8.62968895 6.34746692 -4.32310587 3.4886459 0 0 Z " fill="#8CA9CC" transform="translate(94,110)"/>
<path d="M0 0 C1.32 0.66 2.64 1.32 4 2 C2.14430889 4.20004616 0.2782464 6.23220975 -2 8 C-4.6875 8.125 -4.6875 8.125 -7 7 C-8.8125 4.9375 -8.8125 4.9375 -10 3 C-7.21176345 1.9673198 -6.1322726 1.95490707 -3.25 2.9375 C-2.5075 3.288125 -1.765 3.63875 -1 4 C-0.67 2.68 -0.34 1.36 0 0 Z " fill="#73839F" transform="translate(118,402)"/>
<path d="M0 0 C0.33 0.99 0.66 1.98 1 3 C0.67 3.66 0.34 4.32 0 5 C-3.0625 5.625 -3.0625 5.625 -6 6 C-5.484375 6.928125 -4.96875 7.85625 -4.4375 8.8125 C-3 12 -3 12 -4 15 C-6.5625 12.75 -6.5625 12.75 -9 10 C-8.86555863 7.17673115 -8.23572421 6.2172849 -6.15234375 4.296875 C-5.42144531 3.78640625 -4.69054687 3.2759375 -3.9375 2.75 C-3.20402344 2.22921875 -2.47054688 1.7084375 -1.71484375 1.171875 C-1.14894531 0.78515625 -0.58304687 0.3984375 0 0 Z " fill="#19415E" transform="translate(303,311)"/>
<path d="M0 0 C0.66 0 1.32 0 2 0 C2.05794812 4.27077656 2.09357874 8.54145236 2.125 12.8125 C2.14175781 14.02744141 2.15851563 15.24238281 2.17578125 16.49414062 C2.18222656 17.65751953 2.18867188 18.82089844 2.1953125 20.01953125 C2.20578613 21.09307861 2.21625977 22.16662598 2.22705078 23.27270508 C2 26 2 26 0 29 C0.01160156 28.0821875 0.02320313 27.164375 0.03515625 26.21875 C0.15739645 18.36611907 0.15739645 18.36611907 -0.5625 10.5625 C-1.03914558 6.68124314 -0.71519995 3.81439975 0 0 Z " fill="#2267A6" transform="translate(373,230)"/>
<path d="M0 0 C-0.54984772 3.87511727 -2.27555331 5.59576506 -5.0625 8.25 C-5.79597656 8.95640625 -6.52945313 9.6628125 -7.28515625 10.390625 C-7.85105469 10.92171875 -8.41695312 11.4528125 -9 12 C-9.33 11.01 -9.66 10.02 -10 9 C-9.34 9 -8.68 9 -8 9 C-8 7.02 -8 5.04 -8 3 C-7.34 3 -6.68 3 -6 3 C-6 2.34 -6 1.68 -6 1 C-3 0 -3 0 0 0 Z " fill="#819AB5" transform="translate(140,383)"/>
<path d="M0 0 C0.625 1.8125 0.625 1.8125 1 4 C0.01 5.485 0.01 5.485 -1 7 C-1.66 7 -2.32 7 -3 7 C-3 9.64 -3 12.28 -3 15 C-3.66 15 -4.32 15 -5 15 C-5.33 15.66 -5.66 16.32 -6 17 C-6 16.34 -6 15.68 -6 15 C-6.66 14.67 -7.32 14.34 -8 14 C-7.23432134 12.41416752 -6.46222035 10.83143506 -5.6875 9.25 C-5.25824219 8.36828125 -4.82898438 7.4865625 -4.38671875 6.578125 C-3.09896854 4.18399785 -1.69084246 2.12223042 0 0 Z " fill="#7897B5" transform="translate(70,141)"/>
<path d="M0 0 C3.90156658 3.03455179 6.79575992 5.46906205 9 10 C9 10.66 9 11.32 9 12 C8.01 12.33 7.02 12.66 6 13 C2 8.25 2 8.25 2 6 C1.34 5.67 0.68 5.34 0 5 C0 3.35 0 1.7 0 0 Z " fill="#7CA2C0" transform="translate(408,112)"/>
<path d="M0 0 C0.625 1.8125 0.625 1.8125 1 4 C0.01 5.485 0.01 5.485 -1 7 C-1.66 7 -2.32 7 -3 7 C-3.061875 7.7425 -3.12375 8.485 -3.1875 9.25 C-4.25841636 12.87464 -5.8291869 14.0371157 -9 16 C-9.99 15.67 -10.98 15.34 -12 15 C-11.38511719 14.33613281 -10.77023437 13.67226563 -10.13671875 12.98828125 C-9.32847656 12.10527344 -8.52023437 11.22226562 -7.6875 10.3125 C-6.48673828 9.00732422 -6.48673828 9.00732422 -5.26171875 7.67578125 C-3.18451663 5.21829688 -1.56168424 2.80496684 0 0 Z " fill="#809CB8" transform="translate(381,348)"/>
<path d="M0 0 C5.26267902 3.84147426 7.83207458 6.51152543 9 13 C5.60487328 11.54494569 3.28889743 9.92031741 1 7 C0.25 3.25 0.25 3.25 0 0 Z " fill="#266CAC" transform="translate(189,304)"/>
<path d="M0 0 C0.95787834 3.05077691 1.07626949 3.80085189 -0.125 6.9375 C-2.10075601 10.16456816 -4.15186192 12.51700783 -7 15 C-7.66 15 -8.32 15 -9 15 C-7.61219205 11.10993227 -5.7847773 8.03441292 -3.375 4.6875 C-2.74335938 3.80449219 -2.11171875 2.92148438 -1.4609375 2.01171875 C-0.97882813 1.34785156 -0.49671875 0.68398437 0 0 Z " fill="#1F4F7A" transform="translate(149,172)"/>
<path d="M0 0 C0.66 5.28 1.32 10.56 2 16 C1.01 16 0.02 16 -1 16 C-2.46670113 10.77487721 -3.22577402 6.4185766 -3 1 C-1 0 -1 0 0 0 Z " fill="#809DB9" transform="translate(87,269)"/>
<path d="M0 0 C6.75 0.75 6.75 0.75 9 3 C9.125 6.125 9.125 6.125 9 9 C8.01 9 7.02 9 6 9 C4.39453125 7.03125 4.39453125 7.03125 2.8125 4.5 C2.28269531 3.6646875 1.75289063 2.829375 1.20703125 1.96875 C0.80871094 1.3190625 0.41039062 0.669375 0 0 Z " fill="#859EBF" transform="translate(375,143)"/>
<path d="M0 0 C0.99 0.66 1.98 1.32 3 2 C2.67 2.86625 2.34 3.7325 2 4.625 C1.00409181 7.98619016 0.92447264 10.52574163 1 14 C0.5625 16.125 0.5625 16.125 0 18 C-0.185625 18.7425 -0.37125 19.485 -0.5625 20.25 C-0.7790625 21.11625 -0.7790625 21.11625 -1 22 C-3.58157332 18.12764002 -2.9272242 16.63970382 -2.1875 12.125 C-1.99542969 10.91070312 -1.80335937 9.69640625 -1.60546875 8.4453125 C-1.1089986 5.62023718 -0.5819881 2.80849305 0 0 Z " fill="#627389" transform="translate(45,199)"/>
<path d="M0 0 C1.32195748 3.96587244 0.44181567 6.11082499 -0.8984375 9.96875 C-2 12 -2 12 -5.1875 13.5625 C-6.115625 13.706875 -7.04375 13.85125 -8 14 C-6.46162154 10.80375738 -4.71133468 7.78394426 -2.875 4.75 C-2.33617187 3.85796875 -1.79734375 2.9659375 -1.2421875 2.046875 C-0.62730469 1.03367187 -0.62730469 1.03367187 0 0 Z " fill="#667C93" transform="translate(391,333)"/>
<path d="M0 0 C3.32422593 2.69104004 4.38313883 6.13359286 6 10 C6.66 10.66 7.32 11.32 8 12 C7.625 14.125 7.625 14.125 7 16 C4.02936683 14.28015974 2.28862134 12.89922227 1.22265625 9.578125 C0.58981714 6.38159461 0 3.26476791 0 0 Z " fill="#8FAFD1" transform="translate(63,339)"/>
<path d="M0 0 C2.0390625 3.734375 2.0390625 3.734375 1.6875 6.125 C1 8 1 8 0 10 C-0.66 10 -1.32 10 -2 10 C-2 12.64 -2 15.28 -2 18 C-2.99 18.33 -3.98 18.66 -5 19 C-4.35731596 14.54856736 -3.29333357 10.41118353 -1.9375 6.125 C-1.57527344 4.97257812 -1.21304687 3.82015625 -0.83984375 2.6328125 C-0.42412109 1.32957031 -0.42412109 1.32957031 0 0 Z " fill="#7191A9" transform="translate(410,288)"/>
<path d="M0 0 C3 2 3 2 3.765625 4.86328125 C3.92546875 6.00152344 4.0853125 7.13976562 4.25 8.3125 C4.42015625 9.44300781 4.5903125 10.57351563 4.765625 11.73828125 C4.98408157 14.77846856 4.7693739 17.07088364 4 20 C3.67 20 3.34 20 3 20 C2.49550598 17.41747107 1.99625699 14.83411297 1.5 12.25 C1.35691406 11.52039063 1.21382812 10.79078125 1.06640625 10.0390625 C0.41111121 6.60656468 0 3.50830509 0 0 Z " fill="#607386" transform="translate(42,281)"/>
<path d="M0 0 C1.32 0.33 2.64 0.66 4 1 C3.67 3.31 3.34 5.62 3 8 C2.01 8.33 1.02 8.66 0 9 C-0.33 11.31 -0.66 13.62 -1 16 C-1.33 16 -1.66 16 -2 16 C-2.09765625 9.84765625 -2.09765625 9.84765625 -2 8 C-1.67 7.67 -1.34 7.34 -1 7 C-0.63239269 4.67182036 -0.29758419 2.3381615 0 0 Z " fill="#87A8C7" transform="translate(87,205)"/>
<path d="M0 0 C0.94875 0.350625 1.8975 0.70125 2.875 1.0625 C2.875 4.26645416 2.13164978 6.15649739 0.875 9.0625 C-1.52572955 6.18162454 -3.59791037 3.49845166 -5.125 0.0625 C-3.125 -0.9375 -3.125 -0.9375 0 0 Z " fill="#7C9BB7" transform="translate(388.125,152.9375)"/>
<path d="M0 0 C1.32 0.33 2.64 0.66 4 1 C4.33 5.62 4.66 10.24 5 15 C3.39282229 12.58923344 2.38457485 10.71900755 1.375 8.0625 C0.98441406 7.05896484 0.98441406 7.05896484 0.5859375 6.03515625 C0 4 0 4 0 0 Z " fill="#718CA5" transform="translate(49,311)"/>
<path d="M0 0 C0.84114171 1.43294498 1.67265687 2.87154405 2.5 4.3125 C3.19609375 5.51326172 3.19609375 5.51326172 3.90625 6.73828125 C5 9 5 9 5 12 C4.34 12 3.68 12 3 12 C2.5875 11.05125 2.175 10.1025 1.75 9.125 C-0.08243806 5.85278918 -0.74528073 5.41037835 -4 4 C-4.33 3.01 -4.66 2.02 -5 1 C-3 0 -3 0 0 0 Z " fill="#276FB2" transform="translate(183,162)"/>
<path d="M0 0 C0.99 0 1.98 0 3 0 C2.52354792 4.28806873 1.34097516 6.26647487 -2 9 C-2.66 9 -3.32 9 -4 9 C-4.66 10.65 -5.32 12.3 -6 14 C-6.99 14 -7.98 14 -9 14 C-7.10716849 11.02555049 -5.34818708 8.33823887 -2.8125 5.875 C-0.8811916 3.87709476 -0.3872111 2.71047769 0 0 Z " fill="#256DAF" transform="translate(321,292)"/>
<path d="M0 0 C0.66 1.32 1.32 2.64 2 4 C0.69144447 5.83615081 -0.62194462 7.66885789 -1.9375 9.5 C-2.66839844 10.5209375 -3.39929688 11.541875 -4.15234375 12.59375 C-4.76207031 13.3878125 -5.37179687 14.181875 -6 15 C-6.33 15 -6.66 15 -7 15 C-7 13.35 -7 11.7 -7 10 C-6.01 10 -5.02 10 -4 10 C-3.896875 9.278125 -3.79375 8.55625 -3.6875 7.8125 C-2.94013068 4.75508007 -1.71954811 2.61670365 0 0 Z " fill="#879CBC" transform="translate(418,370)"/>
<path d="M0 0 C0.33 0 0.66 0 1 0 C1.47827783 4.94220419 0.03196449 9.53469531 -2 14 C-3.60546875 15.7734375 -3.60546875 15.7734375 -5 17 C-5.18395704 12.95294518 -4.93489201 10.52833249 -3 7 C-2.62331656 5.34259285 -2.27942455 3.67654729 -2 2 C-1.34 2 -0.68 2 0 2 C0 1.34 0 0.68 0 0 Z " fill="#84A7C9" transform="translate(410,296)"/>
<path d="M0 0 C2.52394612 3.12488567 4.39701907 6.31314387 6 10 C5.67 10.66 5.34 11.32 5 12 C4.01 12.33 3.02 12.66 2 13 C1.690625 11.88625 1.38125 10.7725 1.0625 9.625 C0.17673517 6.2054845 0.17673517 6.2054845 -1 4 C-0.5625 1.875 -0.5625 1.875 0 0 Z " fill="#225F93" transform="translate(175,282)"/>
<path d="M0 0 C0.33 0 0.66 0 1 0 C1.2358396 5.77807024 0.86783046 10.51324804 -1 16 C-1.99 16 -2.98 16 -4 16 C-4 15.01 -4 14.02 -4 13 C-3.34 13 -2.68 13 -2 13 C-2.04125 11.783125 -2.0825 10.56625 -2.125 9.3125 C-2.13754508 5.78105873 -1.59998217 3.19996434 0 0 Z " fill="#7792B5" transform="translate(457,275)"/>
<path d="M0 0 C1.13643966 3.40931897 0.86747764 4.00335456 -0.4375 7.1875 C-0.72496094 7.90292969 -1.01242188 8.61835938 -1.30859375 9.35546875 C-1.53675781 9.89816406 -1.76492187 10.44085938 -2 11 C-2.99 10.67 -3.98 10.34 -5 10 C-5.3125 7.25 -5.3125 7.25 -5 4 C-2.5 1.625 -2.5 1.625 0 0 Z " fill="#84A5C2" transform="translate(94,194)"/>
<path d="M0 0 C0.66 0.99 1.32 1.98 2 3 C0.35 3 -1.3 3 -3 3 C-3.103125 3.5775 -3.20625 4.155 -3.3125 4.75 C-4.10896465 7.35661158 -5.19065277 8.9735311 -7 11 C-7.66 11 -8.32 11 -9 11 C-8.71125 10.443125 -8.4225 9.88625 -8.125 9.3125 C-6.92638182 6.99761036 -6.92638182 6.99761036 -6.1875 4.375 C-5 2 -5 2 -2.375 0.6875 C-1.59125 0.460625 -0.8075 0.23375 0 0 Z M-11 11 C-10.34 11.33 -9.68 11.66 -9 12 C-10.98 12.99 -10.98 12.99 -13 14 C-12.34 13.01 -11.68 12.02 -11 11 Z " fill="#256EAF" transform="translate(327,153)"/>
<path d="M0 0 C3.83520308 3.28731693 6.32465344 7.25147171 8 12 C7.67 12.66 7.34 13.32 7 14 C4.25473365 12.62736683 3.55644352 10.59407253 2 8 C1.34 7.67 0.68 7.34 0 7 C0 4.69 0 2.38 0 0 Z " fill="#637B97" transform="translate(431,144)"/>
<path d="M0 0 C1.65 0.33 3.3 0.66 5 1 C1.375 7.75 1.375 7.75 -2 10 C-1.54177532 6.53058454 -1.10868317 3.32604951 0 0 Z " fill="#778BA7" transform="translate(423,361)"/>
<path d="M0 0 C2.66666667 2.66666667 5.33333333 5.33333333 8 8 C7.67 8.66 7.34 9.32 7 10 C6.34 9.34 5.68 8.68 5 8 C3.68 8 2.36 8 1 8 C-0.42944945 5.64561267 -1.08661261 4.51967567 -0.625 1.75 C-0.41875 1.1725 -0.2125 0.595 0 0 Z " fill="#205486" transform="translate(181,294)"/>
<path d="M0 0 C0.99 0 1.98 0 3 0 C5.29612756 9.41002278 5.29612756 9.41002278 5 14 C4.34 14 3.68 14 3 14 C-0.44419134 4.58997722 -0.44419134 4.58997722 0 0 Z " fill="#256CAF" transform="translate(368,214)"/>
<path d="M0 0 C0.66 0.33 1.32 0.66 2 1 C0.02 4.96 -1.96 8.92 -4 13 C-4.66 12.01 -5.32 11.02 -6 10 C-5.04306291 5.50239569 -3.45519603 2.99450322 0 0 Z " fill="#748BA8" transform="translate(105,169)"/>
<path d="M0 0 C0.33 0 0.66 0 1 0 C2.1732849 4.54647898 2.54128467 9.33027294 2 14 C1.34 14.66 0.68 15.32 0 16 C-0.84634488 10.92193071 -1.17765417 6.15197086 -1 1 C-0.67 0.67 -0.34 0.34 0 0 Z " fill="#637D96" transform="translate(41,259)"/>
<path d="M0 0 C2.5 1.375 2.5 1.375 5 3 C5 3.66 5 4.32 5 5 C5.66 5 6.32 5 7 5 C7 5.99 7 6.98 7 8 C5.68 8 4.36 8 3 8 C0.6875 5.6875 0.6875 5.6875 -1 3 C-0.67 2.01 -0.34 1.02 0 0 Z " fill="#94B2D1" transform="translate(80,370)"/>
<path d="M0 0 C0.33 0.66 0.66 1.32 1 2 C0.34 2 -0.32 2 -1 2 C-1.66 3.65 -2.32 5.3 -3 7 C-3.66 7 -4.32 7 -5 7 C-5 7.66 -5 8.32 -5 9 C-6.65 9.33 -8.3 9.66 -10 10 C-10 10.66 -10 11.32 -10 12 C-10.66 12 -11.32 12 -12 12 C-12 11.01 -12 10.02 -12 9 C-10.02 8.67 -8.04 8.34 -6 8 C-5.938125 7.236875 -5.87625 6.47375 -5.8125 5.6875 C-5 3 -5 3 -2.4375 1.1875 C-1.633125 0.795625 -0.82875 0.40375 0 0 Z " fill="#236AA6" transform="translate(309,308)"/>
<path d="M0 0 C0.33 0 0.66 0 1 0 C1.03738281 0.76183594 1.07476562 1.52367187 1.11328125 2.30859375 C1.53848412 8.98678001 2.50385324 14.78318166 5 21 C4.34 21 3.68 21 3 21 C0.20558799 16.29130574 -0.39036978 12.49324646 -0.1875 7.125 C-0.17396484 6.43664062 -0.16042969 5.74828125 -0.14648438 5.0390625 C-0.1114837 3.35902999 -0.05768954 1.6794065 0 0 Z " fill="#2169AA" transform="translate(127,262)"/>
<path d="M0 0 C1.32 0.33 2.64 0.66 4 1 C0.7 4.3 -2.6 7.6 -6 11 C-6.33 9.68 -6.66 8.36 -7 7 C-6.34 6.34 -5.68 5.68 -5 5 C-4.01 5 -3.02 5 -2 5 C-2 4.34 -2 3.68 -2 3 C-1.34 3 -0.68 3 0 3 C0 2.01 0 1.02 0 0 Z " fill="#889EBF" transform="translate(134,129)"/>
<path d="M0 0 C0.66 0 1.32 0 2 0 C1.70381606 3.55420724 1.19662957 4.80337043 -1.375 7.375 C-2.24125 7.91125 -3.1075 8.4475 -4 9 C-4.99 8.67 -5.98 8.34 -7 8 C-7 7.34 -7 6.68 -7 6 C-6.21625 5.7525 -5.4325 5.505 -4.625 5.25 C-1.67682892 3.84610901 -1.0975223 2.99324263 0 0 Z " fill="#8EA8CB" transform="translate(399,393)"/>
<path d="M0 0 C1.56779517 2.95074112 2.70074575 5.87119234 3.6875 9.0625 C3.95949219 9.91972656 4.23148437 10.77695313 4.51171875 11.66015625 C5 14 5 14 4 17 C3.67 15.68 3.34 14.36 3 13 C2.34 13 1.68 13 1 13 C0.63779734 11.20994059 0.28547531 9.41787943 -0.0625 7.625 C-0.25972656 6.62726563 -0.45695312 5.62953125 -0.66015625 4.6015625 C-1 2 -1 2 0 0 Z " fill="#5B6C87" transform="translate(450,185)"/>
<path d="M0 0 C0 1.32 0 2.64 0 4 C-5.2734375 7.22265625 -5.2734375 7.22265625 -7 8 C-7.66 7.67 -8.32 7.34 -9 7 C-8.07347299 5.82460004 -7.13336613 4.65989423 -6.1875 3.5 C-5.66542969 2.8503125 -5.14335937 2.200625 -4.60546875 1.53125 C-3 0 -3 0 0 0 Z " fill="#255C8F" transform="translate(159,164)"/>
<path d="M0 0 C4.83256305 0.41421969 6.82679218 2.46413986 10 6 C9.01 6.495 9.01 6.495 8 7 C2.5229794 4.83201268 2.5229794 4.83201268 0.625 1.8125 C0.41875 1.214375 0.2125 0.61625 0 0 Z " fill="#6892A8" transform="translate(110,92)"/>
<path d="M0 0 C4.875 4.625 4.875 4.625 6 8 C4.02 8.99 4.02 8.99 2 10 C0.68373308 6.38026598 0 3.90432869 0 0 Z " fill="#83A0BE" transform="translate(104,328)"/>
<path d="M0 0 C0.33 0 0.66 0 1 0 C1.25 7.625 1.25 7.625 -1 11 C-1.39013716 12.9896995 -1.73202649 14.99019869 -2 17 C-2.66 17 -3.32 17 -4 17 C-3.45018084 10.95198929 -2.09570426 5.69398894 0 0 Z " fill="#296DAC" transform="translate(366,289)"/>
<path d="M0 0 C2.60018816 3.90028225 2.15085514 7.47434569 2 12 C1.01 12.33 0.02 12.66 -1 13 C-1.0272415 11.58344207 -1.04650467 10.16672955 -1.0625 8.75 C-1.07410156 7.96109375 -1.08570313 7.1721875 -1.09765625 6.359375 C-1.00385306 4.09308998 -0.63241063 2.1711105 0 0 Z " fill="#809CB6" transform="translate(414,265)"/>
<path d="M0 0 C1 2 1 2 0.51171875 4.12890625 C0.23972656 4.93199219 -0.03226563 5.73507813 -0.3125 6.5625 C-0.57675781 7.36816406 -0.84101563 8.17382812 -1.11328125 9.00390625 C-2 11 -2 11 -4 12 C-4.65213292 14.02463255 -4.65213292 14.02463255 -5 16 C-5.66 16 -6.32 16 -7 16 C-5.26017005 10.18738629 -3.1889511 5.16830006 0 0 Z " fill="#183E58" transform="translate(139,187)"/>
<path d="M0 0 C2.5 1.6875 2.5 1.6875 5 4 C5.3125 6.75 5.3125 6.75 5 9 C3 7.625 3 7.625 1 6 C1 5.34 1 4.68 1 4 C-0.32 3.34 -1.64 2.68 -3 2 C-2.01 1.34 -1.02 0.68 0 0 Z " fill="#194E7C" transform="translate(315,338)"/>
<path d="M0 0 C0.66 0 1.32 0 2 0 C2 1.32 2 2.64 2 4 C1.34 4 0.68 4 0 4 C-0.268125 4.969375 -0.53625 5.93875 -0.8125 6.9375 C-1.204375 7.948125 -1.59625 8.95875 -2 10 C-2.99 10.33 -3.98 10.66 -5 11 C-4.67 9.02 -4.34 7.04 -4 5 C-3.34 5 -2.68 5 -2 5 C-1.34 3.35 -0.68 1.7 0 0 Z " fill="#8CAAD4" transform="translate(438,336)"/>
<path d="M0 0 C0.99 0.33 1.98 0.66 3 1 C3.33 4.3 3.66 7.6 4 11 C3.01 11 2.02 11 1 11 C0.67 7.37 0.34 3.74 0 0 Z " fill="#88A7C7" transform="translate(53,317)"/>
<path d="M0 0 C0.33 0 0.66 0 1 0 C1 3.96 1 7.92 1 12 C0.34 12 -0.32 12 -1 12 C-1.2226746 10.56465159 -1.42761906 9.12654475 -1.625 7.6875 C-1.74101563 6.88699219 -1.85703125 6.08648437 -1.9765625 5.26171875 C-2 3 -2 3 0 0 Z " fill="#809EBC" transform="translate(84,243)"/>
<path d="M0 0 C2 1 2 1 2 1 Z M0 1 C0 1.66 0 2.32 0 3 C-0.66 3 -1.32 3 -2 3 C-1.67 4.32 -1.34 5.64 -1 7 C-2.32 7.33 -3.64 7.66 -5 8 C-5 8.66 -5 9.32 -5 10 C-5.66 10 -6.32 10 -7 10 C-4.83333333 1 -4.83333333 1 0 1 Z " fill="#266DAD" transform="translate(155,169)"/>
<path d="M0 0 C1.32 0.33 2.64 0.66 4 1 C4.33 2.98 4.66 4.96 5 7 C5.99 7.33 6.98 7.66 8 8 C7.67 8.99 7.34 9.98 7 11 C7.66 11.33 8.32 11.66 9 12 C8.01 12 7.02 12 6 12 C5.18432826 10.56429734 4.37257907 9.12636566 3.5625 7.6875 C3.11003906 6.88699219 2.65757812 6.08648437 2.19140625 5.26171875 C1 3 1 3 0 0 Z " fill="#748EA3" transform="translate(389,162)"/>
<path d="M0 0 C1.65 0.33 3.3 0.66 5 1 C4.07347299 2.17539996 3.13336613 3.34010577 2.1875 4.5 C1.66542969 5.1496875 1.14335938 5.799375 0.60546875 6.46875 C-1 8 -1 8 -4 8 C-3 5 -3 5 0 3 C0 2.01 0 1.02 0 0 Z " fill="#76A1B7" transform="translate(125,394)"/>
<path d="M0 0 C2 1.0625 2 1.0625 4 3 C4.25 6.6875 4.25 6.6875 4 10 C2 8.9375 2 8.9375 0 7 C-0.25 3.3125 -0.25 3.3125 0 0 Z " fill="#89A4C0" transform="translate(75,361)"/>
<path d="M0 0 C0.33 0 0.66 0 1 0 C1 1.65 1 3.3 1 5 C0.01 5 -0.98 5 -2 5 C-1.34 3.35 -0.68 1.7 0 0 Z M-4 5 C-3.34 5 -2.68 5 -2 5 C-2.61538462 11.52307692 -2.61538462 11.52307692 -4.5625 13.9375 C-5.036875 14.288125 -5.51125 14.63875 -6 15 C-5.33333333 11.66666667 -4.66666667 8.33333333 -4 5 Z " fill="#8BABD1" transform="translate(450,307)"/>
<path d="M0 0 C0.33 0.66 0.66 1.32 1 2 C-1.62652025 5.59930552 -3.93963643 8.07666989 -8 10 C-8.66 9.67 -9.32 9.34 -10 9 C-6.7 6.03 -3.4 3.06 0 0 Z " fill="#21608E" transform="translate(314,301)"/>
<path d="M0 0 C0.33 0 0.66 0 1 0 C1 3.63 1 7.26 1 11 C-0.32 10.67 -1.64 10.34 -3 10 C-2.25 3.375 -2.25 3.375 0 0 Z " fill="#286EAC" transform="translate(372,271)"/>
<path d="M0 0 C1.98 0 3.96 0 6 0 C6.59732819 2.76264289 7 5.16032769 7 8 C3.75700849 5.61042731 1.49097658 3.7952131 0 0 Z " fill="#245F91" transform="translate(309,194)"/>
<path d="M0 0 C2.18993607 2.18993607 2.72197989 3.5987298 3.6875 6.5 C3.95949219 7.2940625 4.23148437 8.088125 4.51171875 8.90625 C5 11 5 11 4 13 C3.34 12.34 2.68 11.68 2 11 C2 9.68 2 8.36 2 7 C1.01 7 0.02 7 -1 7 C-0.67 4.69 -0.34 2.38 0 0 Z " fill="#607D99" transform="translate(445,172)"/>
<path d="M0 0 C1.16161779 2.86578759 0.9946154 4.01630163 0.00390625 7.015625 C-0.70958984 8.61664063 -0.70958984 8.61664063 -1.4375 10.25 C-1.91058594 11.32765625 -2.38367187 12.4053125 -2.87109375 13.515625 C-3.24363281 14.33546875 -3.61617187 15.1553125 -4 16 C-4.66 16 -5.32 16 -6 16 C-5.37183502 12.05050296 -4.1354471 8.80107972 -2.4375 5.1875 C-1.98246094 4.21167969 -1.52742188 3.23585937 -1.05859375 2.23046875 C-0.70925781 1.49441406 -0.35992187 0.75835937 0 0 Z " fill="#5F768C" transform="translate(61,156)"/>
<path d="M0 0 C3.33557632 2.9905167 5.15083921 5.93184627 7 10 C4.08482708 8.92598892 2.22189824 8.22189824 0 6 C-0.125 2.875 -0.125 2.875 0 0 Z " fill="#6A8297" transform="translate(423,131)"/>
<path d="M0 0 C-0.33 1.65 -0.66 3.3 -1 5 C-1.99 5 -2.98 5 -4 5 C-3.67 6.65 -3.34 8.3 -3 10 C-3.99 9.67 -4.98 9.34 -6 9 C-6.25 6.75 -6.25 6.75 -6 4 C-2.75675676 0 -2.75675676 0 0 0 Z " fill="#688091" transform="translate(360,373)"/>
<path d="M0 0 C2.96404505 2.80804268 5.44499019 5.18315774 7 9 C4.625 8.6875 4.625 8.6875 2 8 C-0.1519437 4.77208445 -0.20086443 3.71599191 0 0 Z " fill="#7F99B2" transform="translate(121,352)"/>
<path d="M0 0 C1.32 0.33 2.64 0.66 4 1 C-0.25347222 5.86111111 -0.25347222 5.86111111 -3.6875 6.5 C-6 6 -6 6 -8 3 C-5.69 3.33 -3.38 3.66 -1 4 C-0.67 2.68 -0.34 1.36 0 0 Z " fill="#21507B" transform="translate(177,344)"/>
<path d="M0 0 C1 2 1 2 1.4375 3.875 C1.91808124 6.03478971 1.91808124 6.03478971 3.0625 7.9375 C4.19063924 10.41940633 4.14977637 12.30402539 4 15 C3.7525 14.46375 3.505 13.9275 3.25 13.375 C1.97317802 10.82280339 1.97317802 10.82280339 -0.125 8 C-2 5 -2 5 -2 1 C-1.34 0.67 -0.68 0.34 0 0 Z " fill="#236DB0" transform="translate(327,212)"/>
<path d="M0 0 C1.65 0 3.3 0 5 0 C6.125 3.75 6.125 3.75 5 6 C3.68 5.67 2.36 5.34 1 5 C0.67 3.35 0.34 1.7 0 0 Z " fill="#2B6AAA" transform="translate(306,188)"/>
<path d="M0 0 C2.4375 0.25 2.4375 0.25 5 1 C5.66 1.99 6.32 2.98 7 4 C6.01 4.33 5.02 4.66 4 5 C4 4.34 4 3.68 4 3 C1.61435923 3.57584432 -0.66682784 4.22227595 -3 5 C-1.125 1.125 -1.125 1.125 0 0 Z " fill="#5A6D81" transform="translate(385,91)"/>
<path d="M0 0 C4.875 4.625 4.875 4.625 6 8 C5.01 8.495 5.01 8.495 4 9 C4 8.34 4 7.68 4 7 C2.68 6.67 1.36 6.34 0 6 C-1.125 2.25 -1.125 2.25 0 0 Z " fill="#6E89A0" transform="translate(114,343)"/>
<path d="M0 0 C0.66 0.99 1.32 1.98 2 3 C1.67 3.99 1.34 4.98 1 6 C0.34 6 -0.32 6 -1 6 C-1.66 8.31 -2.32 10.62 -3 13 C-3.99 12.34 -4.98 11.68 -6 11 C-4.02 7.37 -2.04 3.74 0 0 Z " fill="#68859C" transform="translate(398,321)"/>
<path d="M0 0 C2.475 0.495 2.475 0.495 5 1 C5.91058531 4.07322544 6.08886184 6.80097361 6 10 C3.25722422 6.80009492 1.3697164 3.99500618 0 0 Z " fill="#1A4A6E" transform="translate(138,310)"/>
<path d="M0 0 C1.953125 0.7109375 1.953125 0.7109375 4 2 C4.609375 4.1640625 4.609375 4.1640625 4.75 6.625 C4.80671875 7.44226563 4.8634375 8.25953125 4.921875 9.1015625 C4.94765625 9.72804688 4.9734375 10.35453125 5 11 C0 4.63636364 0 4.63636364 0 0 Z " fill="#1B4867" transform="translate(133,299)"/>
<path d="M0 0 C0.66 0.33 1.32 0.66 2 1 C1.71758359 2.46015291 1.42373386 3.91809793 1.125 5.375 C0.96257812 6.18710937 0.80015625 6.99921875 0.6328125 7.8359375 C0 10 0 10 -2 12 C-1.85962479 10.18706911 -1.71255111 8.3746557 -1.5625 6.5625 C-1.48128906 5.55316406 -1.40007812 4.54382813 -1.31640625 3.50390625 C-1 1 -1 1 0 0 Z " fill="#5B7088" transform="translate(449,311)"/>
<path d="M0 0 C-0.61875 0.2475 -1.2375 0.495 -1.875 0.75 C-4.15543159 1.81738099 -4.15543159 1.81738099 -4.9375 4.0625 C-5.288125 4.701875 -5.63875 5.34125 -6 6 C-8.625 6.75 -8.625 6.75 -11 7 C-3.96875 -1.984375 -3.96875 -1.984375 0 0 Z " fill="#205B8D" transform="translate(316,165)"/>
<path d="M0 0 C0.99 0.33 1.98 0.66 3 1 C1.47291037 4.43595166 -0.59927045 7.11912454 -3 10 C-2.835 9.236875 -2.67 8.47375 -2.5 7.6875 C-1.90854604 4.96403764 -1.90854604 4.96403764 -2 2 C-1.34 2 -0.68 2 0 2 C0 1.34 0 0.68 0 0 Z " fill="#7389A7" transform="translate(119,145)"/>
<path d="M0 0 C4.92307692 4.30769231 4.92307692 4.30769231 5.3125 7.8125 C5.209375 8.534375 5.10625 9.25625 5 10 C4.34 10 3.68 10 3 10 C0 3.375 0 3.375 0 0 Z " fill="#86A0C0" transform="translate(418,125)"/>
<path d="M0 0 C0.99 0.99 1.98 1.98 3 3 C1.52307692 7.67692308 1.52307692 7.67692308 -1.125 9.3125 C-2.053125 9.6528125 -2.053125 9.6528125 -3 10 C-3 9.01 -3 8.02 -3 7 C-1.68 6.67 -0.36 6.34 1 6 C0.34 4.35 -0.32 2.7 -1 1 C-0.67 0.67 -0.34 0.34 0 0 Z " fill="#677AAD" transform="translate(141,119)"/>
<path d="M0 0 C0 2 0 2 -1.75 3.9375 C-3.75631905 5.7766258 -5.78723745 7.41945532 -8 9 C-7.8125 6.1875 -7.8125 6.1875 -7 3 C-4.59196729 1.14766715 -3.07258075 0 0 0 Z " fill="#8DB0D6" transform="translate(376,361)"/>
<path d="M0 0 C0.99 0.33 1.98 0.66 3 1 C2.3125 2.9375 2.3125 2.9375 1 5 C-1.375 6 -1.375 6 -4 6 C-6.3125 4.0625 -6.3125 4.0625 -8 2 C-5.36 2.66 -2.72 3.32 0 4 C0 2.68 0 1.36 0 0 Z " fill="#24527A" transform="translate(328,345)"/>
<path d="M0 0 C0.66 0 1.32 0 2 0 C1.69381595 3.67420866 1.24228216 4.78135513 -1.5625 7.3125 C-2.366875 7.869375 -3.17125 8.42625 -4 9 C-4 7.68 -4 6.36 -4 5 C-3.34 5 -2.68 5 -2 5 C-1.34 3.35 -0.68 1.7 0 0 Z " fill="#224D78" transform="translate(193,327)"/>
<path d="M0 0 C1.2065625 0.0309375 1.2065625 0.0309375 2.4375 0.0625 C2.4375 0.7225 2.4375 1.3825 2.4375 2.0625 C1.5403125 2.1553125 1.5403125 2.1553125 0.625 2.25 C-2.42004676 3.38101737 -3.00740515 5.30574095 -4.5625 8.0625 C-5.2225 8.0625 -5.8825 8.0625 -6.5625 8.0625 C-6.8925 9.0525 -7.2225 10.0425 -7.5625 11.0625 C-7.8925 10.4025 -8.2225 9.7425 -8.5625 9.0625 C-8.2325 8.4025 -7.9025 7.7425 -7.5625 7.0625 C-6.9025 7.0625 -6.2425 7.0625 -5.5625 7.0625 C-5.253125 6.093125 -4.94375 5.12375 -4.625 4.125 C-3.22113454 0.07856426 -3.22113454 0.07856426 0 0 Z " fill="#276DB0" transform="translate(195.5625,323.9375)"/>
<path d="M0 0 C3 3.75 3 3.75 3 6 C3.66 6 4.32 6 5 6 C5 6.66 5 7.32 5 8 C4.01 8 3.02 8 2 8 C1.67 8.99 1.34 9.98 1 11 C-0.28317892 7.15046324 -0.06643637 4.05261865 0 0 Z " fill="#1E4F79" transform="translate(127,277)"/>
<path d="M0 0 C0.66 0.33 1.32 0.66 2 1 C-0.31 4.3 -2.62 7.6 -5 11 C-5.33 9.68 -5.66 8.36 -6 7 C-4.78515625 5.078125 -4.78515625 5.078125 -3.0625 3.25 C-2.49660156 2.63640625 -1.93070313 2.0228125 -1.34765625 1.390625 C-0.90292969 0.93171875 -0.45820313 0.4728125 0 0 Z " fill="#256AA6" transform="translate(145,182)"/>
<path d="M0 0 C0.99 0 1.98 0 3 0 C1.43358249 4.30764815 -0.68336156 8.06171464 -3 12 C-3.33 12 -3.66 12 -4 12 C-4.1875 9.6875 -4.1875 9.6875 -4 7 C-2.5625 5.4375 -2.5625 5.4375 -1 4 C-0.28552357 1.89667109 -0.28552357 1.89667109 0 0 Z " fill="#8CADD2" transform="translate(71,141)"/>
<path d="M0 0 C0.99 0.66 1.98 1.32 3 2 C2.34 2 1.68 2 1 2 C1.309375 3.11375 1.309375 3.11375 1.625 4.25 C2.05320737 7.3901874 1.59182706 8.3469549 0 11 C-0.33 11.99 -0.66 12.98 -1 14 C-1.66 13.34 -2.32 12.68 -3 12 C-2.690625 11.319375 -2.38125 10.63875 -2.0625 9.9375 C-0.86629351 6.63034088 -0.40994603 3.48454122 0 0 Z " fill="#88AACF" transform="translate(452,290)"/>
<path d="M0 0 C1.98 0.99 1.98 0.99 4 2 C4.75 5.625 4.75 5.625 5 9 C4.01 9.495 4.01 9.495 3 10 C2.01 6.7 1.02 3.4 0 0 Z " fill="#1D4B6D" transform="translate(129,289)"/>
<path d="M0 0 C0.66 0 1.32 0 2 0 C2 2.64 2 5.28 2 8 C0.68 8.33 -0.64 8.66 -2 9 C-1.34 6.03 -0.68 3.06 0 0 Z " fill="#647C94" transform="translate(51,179)"/>
<path d="M0 0 C1.875 0.125 1.875 0.125 4 1 C5.25 4.0625 5.25 4.0625 6 7 C5.01 7.495 5.01 7.495 4 8 C1.10067643 5.60490662 0.49831724 3.68754757 0 0 Z " fill="#92B5D9" transform="translate(399,177)"/>
<path d="M0 0 C2.04119788 1.61594832 4.04072937 3.2856382 6 5 C6 5.66 6 6.32 6 7 C3.03 6.505 3.03 6.505 0 6 C0 4.02 0 2.04 0 0 Z " fill="#667794" transform="translate(402,105)"/>
<path d="M0 0 C2.97 0.495 2.97 0.495 6 1 C6 2.32 6 3.64 6 5 C6.66 5.33 7.32 5.66 8 6 C5.21788056 5.62403791 3.4120716 5.32681541 1.1875 3.5625 C0 2 0 2 0 0 Z " fill="#8FAED7" transform="translate(114,97)"/>
<path d="M0 0 C1.07310858 3.27185553 0.89263102 5.42947592 0.0625 8.75 C-0.22947266 9.94882812 -0.22947266 9.94882812 -0.52734375 11.171875 C-0.68332031 11.77515625 -0.83929688 12.3784375 -1 13 C-2.74565111 9.78360346 -3.204437 7.67986596 -3 4 C-2.34 3.67 -1.68 3.34 -1 3 C-0.67 2.01 -0.34 1.02 0 0 Z " fill="#505E73" transform="translate(456,288)"/>
<path d="M0 0 C0.66 0.33 1.32 0.66 2 1 C2.34731345 5.86238823 1.52309739 8.82718509 -1 13 C-1.99 13.495 -1.99 13.495 -3 14 C-2.09276387 9.31261335 -1.0452733 4.65806256 0 0 Z " fill="#266FB4" transform="translate(330,272)"/>
<path d="M0 0 C2 1 2 1 2.68359375 2.796875 C3.211122 6.47003466 2.00363927 9.45774375 1 13 C0.67 13 0.34 13 0 13 C0 8.71 0 4.42 0 0 Z " fill="#7B94B2" transform="translate(42,218)"/>
<path d="M0 0 C2.46800047 1.15173355 4.04783565 2.04783565 6 4 C6.125 6.625 6.125 6.625 6 9 C0.42857143 3.85714286 0.42857143 3.85714286 0 0 Z " fill="#276AA7" transform="translate(359,192)"/>
<path d="M0 0 C1.39195915 4.17587745 -0.17676781 6.13474776 -2 10 C-2.66 9.67 -3.32 9.34 -4 9 C-4.625 6.4375 -4.625 6.4375 -5 4 C-3.68 4 -2.36 4 -1 4 C-0.67 2.68 -0.34 1.36 0 0 Z " fill="#637BA2" transform="translate(98,184)"/>
<path d="M0 0 C0.66 0.33 1.32 0.66 2 1 C0.08864614 4.53600465 -1.62642766 6.78972846 -5 9 C-3.90931332 5.22454612 -3.0916909 2.52956528 0 0 Z " fill="#256BA9" transform="translate(307,171)"/>
<path d="M0 0 C0.99 0 1.98 0 3 0 C3.1875 2.375 3.1875 2.375 3 5 C2.01 5.66 1.02 6.32 0 7 C0 6.01 0 5.02 0 4 C-0.66 3.67 -1.32 3.34 -2 3 C-1.34 2.01 -0.68 1.02 0 0 Z " fill="#7A9CBE" transform="translate(401,389)"/>
<path d="M0 0 C2.4375 1.1875 2.4375 1.1875 5 3 C5.8125 5.6875 5.8125 5.6875 6 8 C3.5625 6.8125 3.5625 6.8125 1 5 C0.1875 2.3125 0.1875 2.3125 0 0 Z " fill="#1F537E" transform="translate(196,311)"/>
<path d="M0 0 C0.33 0.99 0.66 1.98 1 3 C1.66 3 2.32 3 3 3 C3 5.31 3 7.62 3 10 C2.01 9.34 1.02 8.68 0 8 C-0.40843923 5.28796348 -0.13336867 2.7562858 0 0 Z " fill="#778FAF" transform="translate(42,273)"/>
<path d="M0 0 C0.66 0 1.32 0 2 0 C2.66 1.32 3.32 2.64 4 4 C3.01 4.33 2.02 4.66 1 5 C1 7.31 1 9.62 1 12 C0.67 12 0.34 12 0 12 C0 8.04 0 4.08 0 0 Z " fill="#7FAFD4" transform="translate(83,265)"/>
<path d="M0 0 C1.32 0.99 2.64 1.98 4 3 C3.67 3.33 3.34 3.66 3 4 C2.76572222 6.01594582 2.58663876 8.038474 2.4375 10.0625 C2.31181641 11.71958984 2.31181641 11.71958984 2.18359375 13.41015625 C2.12300781 14.26480469 2.06242187 15.11945313 2 16 C1.67 16 1.34 16 1 16 C0.67 10.72 0.34 5.44 0 0 Z " fill="#7BA8CA" transform="translate(455,223)"/>
<path d="M0 0 C0.96516243 3.00272755 1.22393475 5.04215769 0 8 C-0.99 8.33 -1.98 8.66 -3 9 C-3.33 7.68 -3.66 6.36 -4 5 C-3.01 5 -2.02 5 -1 5 C-0.67 3.35 -0.34 1.7 0 0 Z " fill="#25608F" transform="translate(135,198)"/>
<path d="M0 0 C0.33 0.99 0.66 1.98 1 3 C-0.65 4.65 -2.3 6.3 -4 8 C-4.99 7.67 -5.98 7.34 -7 7 C-5.37660195 5.29115995 -3.70680947 3.62553283 -2 2 C-1.34 2 -0.68 2 0 2 C0 1.34 0 0.68 0 0 Z " fill="#224769" transform="translate(202,181)"/>
<path d="M0 0 C0.99 0.33 1.98 0.66 3 1 C4.6900877 4.80269732 5.19873962 7.05272168 4 11 C3.33125616 9.35500958 2.66505926 7.70898352 2 6.0625 C1.443125 4.68771484 1.443125 4.68771484 0.875 3.28515625 C0 1 0 1 0 0 Z " fill="#7E94AA" transform="translate(400,182)"/>
<path d="M0 0 C0.66 0.99 1.32 1.98 2 3 C1.34 3 0.68 3 0 3 C0 4.65 0 6.3 0 8 C-0.639375 8.12375 -1.27875 8.2475 -1.9375 8.375 C-2.618125 8.58125 -3.29875 8.7875 -4 9 C-4.33 9.66 -4.66 10.32 -5 11 C-4.35279552 7.50509579 -2.88736706 4.98833118 -1 2 C-0.67 1.34 -0.34 0.68 0 0 Z " fill="#91B1D7" transform="translate(107,161)"/>
<path d="M0 0 C2 1 2 1 2.8515625 3.06640625 C3.10679687 3.89011719 3.36203125 4.71382812 3.625 5.5625 C3.88539063 6.38878906 4.14578125 7.21507812 4.4140625 8.06640625 C4.60742188 8.70449219 4.80078125 9.34257812 5 10 C2 9 2 9 0.8125 6.6875 C0 4 0 4 0 0 Z " fill="#627E95" transform="translate(439,159)"/>
<path d="M0 0 C2.31 0 4.62 0 7 0 C7 1.32 7 2.64 7 4 C6.01 3.67 5.02 3.34 4 3 C4 2.34 4 1.68 4 1 C2.02 1.99 2.02 1.99 0 3 C0 2.01 0 1.02 0 0 Z " fill="#256EB2" transform="translate(168,155)"/>
<path d="M0 0 C0.625 1.8125 0.625 1.8125 1 4 C0.01 5.485 0.01 5.485 -1 7 C-1.66 7 -2.32 7 -3 7 C-3 7.66 -3 8.32 -3 9 C-3.66 9 -4.32 9 -5 9 C-3.7508258 5.54074837 -2.32472205 2.85306797 0 0 Z " fill="#68779B" transform="translate(70,141)"/>
<path d="M0 0 C-0.99 2.97 -1.98 5.94 -3 9 C-5 5 -5 5 -4.75 2.8125 C-3.70061638 0.27648959 -2.68343584 0 0 0 Z " fill="#6E8099" transform="translate(444,331)"/>
<path d="M0 0 C2.97 0.495 2.97 0.495 6 1 C6.33 2.98 6.66 4.96 7 7 C5.83040013 6.02433888 4.66438823 5.044375 3.5 4.0625 C2.8503125 3.51722656 2.200625 2.97195313 1.53125 2.41015625 C1.0259375 1.94480469 0.520625 1.47945313 0 1 C0 0.67 0 0.34 0 0 Z " fill="#1E4363" transform="translate(305,332)"/>
<path d="M0 0 C2.31 0.33 4.62 0.66 7 1 C6.67 2.98 6.34 4.96 6 7 C1.125 2.25 1.125 2.25 0 0 Z " fill="#255E8F" transform="translate(151,329)"/>
<path d="M0 0 C0.99 0 1.98 0 3 0 C3.66 2.31 4.32 4.62 5 7 C3.35 6.67 1.7 6.34 0 6 C0 4.02 0 2.04 0 0 Z " fill="#758FBB" transform="translate(95,311)"/>
<path d="M0 0 C2.50298434 2.93828597 3.46930939 5.17902761 4 9 C2.68 8.34 1.36 7.68 0 7 C0 4.69 0 2.38 0 0 Z " fill="#1F486D" transform="translate(365,197)"/>
<path d="M0 0 C1.98 0 3.96 0 6 0 C4.25 3.875 4.25 3.875 2 5 C1.34 3.35 0.68 1.7 0 0 Z " fill="#7A92B0" transform="translate(389,401)"/>
<path d="M0 0 C-0.33 1.65 -0.66 3.3 -1 5 C-2.65 3.35 -4.3 1.7 -6 0 C-3 -1 -3 -1 0 0 Z " fill="#6D94B7" transform="translate(381,402)"/>
<path d="M0 0 C2.31 0.33 4.62 0.66 7 1 C6.67 2.32 6.34 3.64 6 5 C4.02 4.01 2.04 3.02 0 2 C0 1.34 0 0.68 0 0 Z " fill="#90B3DA" transform="translate(129,368)"/>
<path d="M0 0 C0.99 0.33 1.98 0.66 3 1 C3 1.66 3 2.32 3 3 C3.66 3 4.32 3 5 3 C5 3.99 5 4.98 5 6 C3.68 5.67 2.36 5.34 1 5 C0.67 3.35 0.34 1.7 0 0 Z " fill="#2667A2" transform="translate(148,323)"/>
<path d="M0 0 C2.31 1.98 4.62 3.96 7 6 C4.50907189 7.24546405 3.58919267 6.7767578 1 6 C0.67 4.02 0.34 2.04 0 0 Z " fill="#2D5A85" transform="translate(189,304)"/>
<path d="M0 0 C0.99 0.33 1.98 0.66 3 1 C3 1.66 3 2.32 3 3 C2.34 3 1.68 3 1 3 C0.67 4.32 0.34 5.64 0 7 C-0.99 6.67 -1.98 6.34 -3 6 C-2.01 4.02 -1.02 2.04 0 0 Z " fill="#87ACCE" transform="translate(97,181)"/>
<path d="M0 0 C0.99 0 1.98 0 3 0 C3.66 1.65 4.32 3.3 5 5 C4.01 5.33 3.02 5.66 2 6 C0 3 0 3 0 0 Z " fill="#8BA8CD" transform="translate(412,119)"/>
<path d="M0 0 C1.98 0.66 3.96 1.32 6 2 C6.33 3.65 6.66 5.3 7 7 C5.83040013 6.02433888 4.66438823 5.044375 3.5 4.0625 C2.8503125 3.51722656 2.200625 2.97195313 1.53125 2.41015625 C1.0259375 1.94480469 0.520625 1.47945313 0 1 C0 0.67 0 0.34 0 0 Z " fill="#586C7E" transform="translate(362,389)"/>
<path d="M0 0 C0.66 0.33 1.32 0.66 2 1 C1.6875 3.375 1.6875 3.375 1 6 C0.01 6.66 -0.98 7.32 -2 8 C-2.33 6.68 -2.66 5.36 -3 4 C-2.01 4 -1.02 4 0 4 C0 2.68 0 1.36 0 0 Z " fill="#7F93B0" transform="translate(143,376)"/>
<path d="M0 0 C0.33 1.32 0.66 2.64 1 4 C-1.4375 6.75 -1.4375 6.75 -4 9 C-4.66 8.67 -5.32 8.34 -6 8 C-4.02 5.36 -2.04 2.72 0 0 Z " fill="#637687" transform="translate(381,348)"/>
<path d="M0 0 C0.66 0 1.32 0 2 0 C2.33 3.3 2.66 6.6 3 10 C0.70366176 6.55549263 0.45983515 4.06187717 0 0 Z " fill="#608298" transform="translate(51,316)"/>
<path d="M0 0 C1.70884005 1.62339805 3.37446717 3.29319053 5 5 C5 5.66 5 6.32 5 7 C3.0625 6.3125 3.0625 6.3125 1 5 C0.25 2.375 0.25 2.375 0 0 Z " fill="#2B69A6" transform="translate(185,301)"/>
<path d="M0 0 C0.66 0 1.32 0 2 0 C1.01 2.97 0.02 5.94 -1 9 C-1.33 9 -1.66 9 -2 9 C-2.25 3.375 -2.25 3.375 0 0 Z " fill="#203F64" transform="translate(366,297)"/>
<path d="M0 0 C0.33 0 0.66 0 1 0 C1 2.97 1 5.94 1 9 C0.01 8.67 -0.98 8.34 -2 8 C-2.20086443 4.28400809 -2.1519437 3.22791555 0 0 Z " fill="#7A95A9" transform="translate(86,223)"/>
<path d="M0 0 C0.66 0.33 1.32 0.66 2 1 C0.515 4.96 0.515 4.96 -1 9 C-1.33 9 -1.66 9 -2 9 C-2 6.36 -2 3.72 -2 1 C-1.34 0.67 -0.68 0.34 0 0 Z " fill="#2C5785" transform="translate(174,217)"/>
<path d="M0 0 C0.36923077 4.55384615 0.36923077 4.55384615 -1.5 6.8125 C-1.995 7.204375 -2.49 7.59625 -3 8 C-3.6875 5.6875 -3.6875 5.6875 -4 3 C-1.72413793 0 -1.72413793 0 0 0 Z " fill="#256AA7" transform="translate(186,196)"/>
<path d="M0 0 C1.5 1.25 1.5 1.25 3 3 C3 4.32 3 5.64 3 7 C3.66 7 4.32 7 5 7 C4.67 7.66 4.34 8.32 4 9 C3.01 8.67 2.02 8.34 1 8 C0.67 5.36 0.34 2.72 0 0 Z " fill="#8FB1D5" transform="translate(404,185)"/>
<path d="M0 0 C2.475 0.495 2.475 0.495 5 1 C5.33 1.99 5.66 2.98 6 4 C4.35 3.67 2.7 3.34 1 3 C0.67 2.01 0.34 1.02 0 0 Z " fill="#93B7DC" transform="translate(87,380)"/>
<path d="M0 0 C1.98 0.99 1.98 0.99 4 2 C4 3.65 4 5.3 4 7 C2 5.75 2 5.75 0 4 C0 2.68 0 1.36 0 0 Z " fill="#2D6C97" transform="translate(157,333)"/>
<path d="M0 0 C0.99 0 1.98 0 3 0 C1.125 4.75 1.125 4.75 0 7 C-0.66 6.67 -1.32 6.34 -2 6 C-1.34 4.02 -0.68 2.04 0 0 Z " fill="#8CADD0" transform="translate(397,326)"/>
<path d="M0 0 C2.0625 2.3125 2.0625 2.3125 4 5 C3.67 5.99 3.34 6.98 3 8 C2.01 7.34 1.02 6.68 0 6 C-0.1875 2.875 -0.1875 2.875 0 0 Z " fill="#1B4C79" transform="translate(296,318)"/>
<path d="M0 0 C0.99 0.33 1.98 0.66 3 1 C2.39816251 3.02045442 1.72693904 5.02111039 1 7 C0.01 7.495 0.01 7.495 -1 8 C-1.125 2.25 -1.125 2.25 0 0 Z " fill="#8CADD0" transform="translate(406,305)"/>
<path d="M0 0 C4.875 3.625 4.875 3.625 6 7 C5.01 7 4.02 7 3 7 C3 6.01 3 5.02 3 4 C1.68 3.34 0.36 2.68 -1 2 C-0.67 1.34 -0.34 0.68 0 0 Z " fill="#245780" transform="translate(346,168)"/>
<path d="M0 0 C0.66 0.99 1.32 1.98 2 3 C0.60804085 5.7839183 -1.15575779 5.97898997 -4 7 C-2.92598892 4.08482708 -2.22189824 2.22189824 0 0 Z " fill="#6C7C91" transform="translate(88,115)"/>
</svg>
