<svg width="128" height="128" fill="none" xmlns="http://www.w3.org/2000/svg"><path d="M6 93.253V37.84h4c0 3.043 1.586 5.8 4.084 7.345l.245.147.004.002 46.334 26.737v44.276a7.34 7.34 0 0 1-3.663 6.342 7.297 7.297 0 0 1-7.337.003l-40-23.093-.215-.13A7.34 7.34 0 0 1 6 93.254Zm4 0c0 1.177.63 2.28 1.67 2.884l39.997 23.091.004.002c1.032.6 2.293.6 3.325 0a3.341 3.341 0 0 0 1.671-2.883V74.382L12.334 48.799A12.588 12.588 0 0 1 10 47.07v46.182Z" fill="#3C3C3C"/><path d="M56.667 11.653c0-1.176-.63-2.28-1.67-2.883a3.3 3.3 0 0 0-3.326 0l-.005.002L14.333 30.32A8.693 8.693 0 0 0 10 37.84c0 3.044 1.585 5.802 4.084 7.348l.245.145.004.003 42.334 24.429v-58.11Zm4 65.037L12.337 48.8A12.632 12.632 0 0 1 6 37.84c0-4.527 2.407-8.705 6.33-10.983l.004-.002L49.662 5.312a7.299 7.299 0 0 1 7.342-.001 7.342 7.342 0 0 1 3.663 6.342V76.69ZM67.333 11.653a7.341 7.341 0 0 1 3.663-6.342 7.299 7.299 0 0 1 7.341 0l39.996 23.09.004.003A7.34 7.34 0 0 1 122 34.747V90.16h-4a8.634 8.634 0 0 0-4.329-7.492l-.005-.003-46.333-26.764V11.653Zm4 41.94 44.329 25.606.359.213c.713.441 1.375.95 1.979 1.516v-46.18a3.34 3.34 0 0 0-1.671-2.885L76.333 8.773l-.004-.003a3.3 3.3 0 0 0-3.325 0 3.342 3.342 0 0 0-1.67 2.883v41.94Z" fill="#3C3C3C"/><path d="M118 90.16a8.632 8.632 0 0 0-4.329-7.491l-.005-.003L71.333 58.21v58.135c0 1.177.631 2.28 1.671 2.884 1.033.6 2.293.6 3.325 0l.004-.002 37.334-21.547c2.694-1.566 4.333-4.376 4.333-7.521Zm4 0c0 4.586-2.412 8.709-6.329 10.983l-.005.002-37.33 21.544.001.001a7.298 7.298 0 0 1-7.341 0 7.343 7.343 0 0 1-3.663-6.344V51.282l48.329 27.917.359.214A12.632 12.632 0 0 1 122 90.16Z" fill="#3C3C3C"/></svg>